<svg class="css-ze2te4 css-qd6ojx" viewBox="0 0 86.82078823963963 86.79300936260843"
  xmlns="http://www.w3.org/2000/svg">

  <g transform="translate(-16.852856658027694, -16.866153002346504) scale(1.2052409699550182)"
    class="css-14u6vco" fill="#f0fff3">
    <g xmlns="http://www.w3.org/2000/svg">
      <path
        d="M30.212,62.258c-0.08,0.253-0.057,0.527,0.065,0.763c4.029,7.786,11.958,12.637,20.721,12.699   c0.036,0.004,0.072,0.006,0.108,0.006c0.003,0,0.006-0.002,0.009-0.002c0.018,0,0.035,0.002,0.052,0.002c0,0,0,0,0,0   c3.724,0,7.452-0.911,10.781-2.633c5.575-2.885,9.693-7.768,11.595-13.75c1.371-4.311,1.466-8.819,0.336-13.089   c-0.001-0.002-0.001-0.005-0.002-0.008c-0.438-1.652-1.053-3.269-1.857-4.823c-0.253-0.491-0.856-0.683-1.348-0.429L30.706,61.673   C30.47,61.795,30.292,62.006,30.212,62.258z M61.03,71.316c-2.762,1.429-5.707,2.224-8.767,2.377c0.418-2.347,1.29-3.991,2.6-4.891   c1.733-1.19,3.738-0.677,3.752-0.672c0.501,0.14,1.027-0.133,1.208-0.621c0.007-0.02,0.745-1.952,2.717-2.679   c1.49-0.548,3.331-0.312,5.483,0.697C66.151,67.902,63.795,69.885,61.03,71.316z M71.638,58.736   c-0.586,1.844-1.421,3.562-2.441,5.146c-2.806-1.386-5.289-1.702-7.384-0.915c-1.923,0.722-2.998,2.185-3.505,3.09   c-1.032-0.109-2.847-0.077-4.547,1.077c-1.854,1.256-3.03,3.468-3.519,6.562c-5.531-0.234-10.647-2.55-14.416-6.389   c3.207-0.857,10.708-3.128,19.229-7.537c8.51-4.403,14.692-9.21,17.25-11.336C72.918,51.833,72.715,55.351,71.638,58.736z    M70.683,43.239c0.453,0.981,0.806,1.991,1.104,3.012c-1.752,1.502-8.359,6.936-17.651,11.743   c-9.308,4.816-17.573,7.072-19.795,7.629c-0.659-0.83-1.269-1.708-1.808-2.644L70.683,43.239z"></path>
      <path
        d="M50.029,86.007c5.704,0,11.415-1.395,16.516-4.034c8.541-4.419,14.849-11.899,17.763-21.063   c2.915-9.164,2.085-18.914-2.334-27.454c-6.212-12.005-18.475-19.462-32.002-19.462c-5.704,0-11.415,1.395-16.515,4.034   c-8.541,4.419-14.849,11.9-17.763,21.064c-2.915,9.164-2.085,18.914,2.334,27.454C24.239,78.55,36.501,86.007,50.029,86.007z    M17.599,39.697c2.752-8.655,8.71-15.72,16.776-19.894c4.817-2.493,10.21-3.81,15.596-3.81c12.777,0,24.359,7.043,30.226,18.381   c4.174,8.066,4.957,17.274,2.205,25.929c-2.752,8.655-8.71,15.72-16.776,19.893c-4.818,2.493-10.211,3.811-15.597,3.811   c-12.777,0-24.358-7.043-30.226-18.382C15.629,57.56,14.846,48.352,17.599,39.697z"></path>
      <path
        d="M25.439,46.865l10.912-1.062l-7.169,8.294c-0.361,0.417-0.315,1.049,0.103,1.41c0.189,0.164,0.422,0.244,0.653,0.244   c0.28,0,0.559-0.117,0.757-0.346L39.5,45.219c0.268-0.309,0.32-0.75,0.132-1.113c-0.188-0.364-0.583-0.581-0.985-0.536l-13.4,1.305   c-0.55,0.053-0.952,0.542-0.898,1.092C24.401,46.517,24.891,46.919,25.439,46.865z"></path>
      <path
        d="M52.065,38.672c0.032,0,0.065-0.001,0.097-0.005l13.399-1.304c0.55-0.053,0.952-0.542,0.898-1.092   c-0.053-0.55-0.542-0.951-1.092-0.898l-10.911,1.062l7.168-8.293c0.361-0.417,0.315-1.049-0.103-1.41   c-0.418-0.362-1.05-0.315-1.41,0.103l-8.804,10.185c-0.268,0.309-0.32,0.75-0.132,1.113C51.35,38.466,51.694,38.672,52.065,38.672z   "></path>
    </g>
  </g>
</svg>