<svg width="429.00000000000006" height="84.29327925439945"
  viewBox="0 0 441.72206071358517 86.79300936260843" class="css-1j8o68f"
  xmlns="http://www.w3.org/2000/svg">
  <defs id="SvgjsDefs1661"></defs>
  <g id="SvgjsG1662" featurekey="nameLeftFeature-0"
    transform="matrix(2.3576502351053397,0,0,2.3576502351053397,-0.7976551631449947,14.44751249892555)"
    fill="#f0fff3">
    <path
      d="M0.86 19.92 c-0.04 0 -0.06 0.02 -0.08 0.02 l0.08 0.08 c-0.02 0 -0.08 0.06 -0.22 0.06 c-0.16 0 -0.28 -0.22 -0.28 -0.32 c0 -0.2 0.06 -0.26 0.9 -0.26 c0.38 0 1.04 -0.02 1.12 -0.16 c0 0 0.08 -0.6 0.12 -0.66 c0 0 -0.04 -0.84 -0.04 -0.92 c0 -0.02 0.04 -0.16 0.04 -0.22 c0 -0.04 0 -0.08 -0.04 -0.16 l0 -2.52 l0.04 -0.06 c0 -0.6 -0.08 -1.04 -0.08 -1.58 c0 -0.5 0.04 -0.8 0.04 -1.16 l0 -6.24 c-0.06 -0.06 -0.14 -0.28 -0.2 -0.28 c0.02 0 -0.7 0.08 -1.32 0.08 c-0.16 0 -0.6 0 -0.6 -0.2 l0 -0.32 c-0.02 -0.02 0.14 -0.12 0.44 -0.12 l4.7 0 c0.18 0 0.28 0.02 0.4 0.16 c-0.02 0.02 -0.02 0.04 -0.02 0.06 c0 0.14 0.2 0.26 0.2 0.54 c-0.02 0 -0.02 -0.02 -0.02 -0.02 c-0.02 0 -0.02 0.02 -0.02 0.02 c0 0.12 0.46 0.96 0.46 1.48 c0 0.4 0.26 0.62 0.26 0.94 c-0.02 0.02 -0.02 0.02 -0.02 0.04 c0 0.08 0.26 0.3 0.26 0.76 c-0.02 0.02 -0.02 0.02 -0.02 0.04 c0 0.04 0.16 0.1 0.16 0.46 c0 0.02 -0.02 0.02 -0.02 0.04 c0 0.08 0.18 0.12 0.18 0.54 c0.08 0.88 0.3 0.8 0.3 0.92 c0.02 0.6 0.42 0.76 0.42 1.52 c0 0.28 0.34 0.78 0.34 1.16 c0.22 0.38 -0.06 0.24 0.44 1.2 l0.2 0 c0.08 -0.5 0.46 -1 0.46 -1.38 c0.06 -1.06 0.48 -0.96 0.48 -1.72 l0 -0.02 c0 -0.1 0.3 -0.62 0.3 -0.98 c0 -0.52 0.22 -0.6 0.22 -0.84 l-0.04 0 c0 -0.02 0.2 -0.1 0.2 -0.44 c0.08 -1.58 0.62 -1.2 0.62 -2.08 c0.2 -1.98 0.64 -1.22 0.64 -2.24 c-0.02 0 -0.02 0 -0.02 -0.02 c0 -0.04 0.32 -0.18 0.76 -0.18 c0.1 0 0.9 0.04 1 0.04 c0.12 0 1.76 -0.04 2.82 -0.04 c0.38 0 0.78 0.16 0.76 0.16 l0 0.28 l-0.04 0.04 c-0.04 0 -0.16 0.12 -0.2 0.12 l-0.04 0.04 c-0.54 0 -0.96 -0.08 -1.24 -0.08 c-0.12 0 -0.3 -0.02 -0.42 0.32 l0 7.14 c0 0.04 0.04 0.26 0.04 0.32 c0 0.04 -0.04 0.36 -0.04 0.38 s-0.02 0.02 -0.02 0.04 s0.02 0.06 0.06 0.12 c0 3.62 -0.08 2.68 -0.08 4.44 c0 0.6 0.1 1.2 0.58 1.2 c0.1 0 0.22 -0.06 0.3 -0.06 l0.48 0 l0.02 0.02 c0.2 0 0.08 -0.02 0.34 -0.02 c0.24 0 0.3 0.28 0.3 0.32 c0 0.1 -0.04 0.22 -0.18 0.22 c-0.16 0 -0.18 0.04 -0.18 0.04 c-0.08 0 -0.52 -0.04 -0.58 -0.04 c-0.96 0 -1.36 0.06 -2 0.06 c-0.18 0 -0.44 -0.06 -0.68 -0.06 c-0.5 0 -0.54 0.04 -0.74 0.04 c-0.4 0 -1.02 -0.06 -1.06 -0.06 c0 0.06 -0.76 0.06 -0.84 0.06 c-0.32 0 -0.32 -0.02 -0.42 -0.06 l0.06 -0.04 c0 -0.04 -0.04 -0.12 -0.06 -0.18 c-0.04 0.02 -0.04 0.06 -0.04 0.1 l0 0.08 c-0.08 0 -0.12 0 -0.12 -0.02 l0 -0.28 c0.16 -0.06 0.3 -0.16 0.36 -0.18 l0.76 0 c0.04 0.02 0 0.02 0.14 0.02 c0.02 0 0.04 0 0.04 -0.04 l0.4 0 c0 0.02 0.02 0.02 0.04 0.02 c0.1 0 0.26 -0.5 0.26 -1.7 c0 -1.56 -0.04 -1.98 -0.04 -2.8 c0 -0.02 0 -0.04 0.04 -0.1 c0 0.06 -0.1 -3.48 -0.1 -4.6 c-0.02 0.02 -0.02 0.04 -0.02 0.04 l0 0 s0.1 -0.88 0.1 -2.2 c0 -0.6 -0.04 -1.12 -0.24 -1.12 c0 -0.02 0.02 -0.02 0.02 -0.02 c-0.3 0 -0.28 1.04 -0.64 1.7 c0.02 0 0.02 0.02 0.02 0.04 c0 0.1 -0.22 0.38 -0.22 0.6 c0 0.02 0.02 0.04 0.02 0.06 c-0.06 -0.02 -0.04 0.36 -0.2 0.52 c0 1.04 -0.54 1.14 -0.54 1.92 c-0.14 0.6 -0.3 0.46 -0.3 1.02 c-0.04 0.42 -0.52 1.18 -0.52 1.48 c0 0.64 -0.24 0.3 -0.24 0.94 l0.02 0 c0 0.06 -0.28 0.46 -0.28 0.88 c0 1 -0.68 1.36 -0.68 2.14 c0 0.52 -0.32 0.82 -0.32 1.1 c0 0.04 -0.04 0.76 -0.5 0.76 c-0.42 0 -0.74 -0.92 -0.74 -1.4 c-0.16 -0.7 -0.22 -0.88 -0.54 -1.82 c-0.14 -0.68 -0.42 -0.9 -0.42 -1.26 c0 -0.28 -0.3 -0.64 -0.3 -0.9 c-0.04 -0.56 -0.06 0.04 -0.56 -1.94 c0 0 -0.12 -0.58 -0.2 -0.64 l0 -0.14 s0 -0.04 0.02 -0.06 c0.02 0.02 0.08 0.04 0.1 0.04 s0.02 0 0.02 -0.02 s-0.02 -0.06 -0.04 -0.08 c-0.04 0 -0.08 0 -0.12 0.02 c-0.06 -0.04 -0.28 -0.48 -0.28 -0.76 c-0.04 -0.74 -0.46 -1.44 -0.66 -2.14 l0 0.02 c-0.04 0 -0.46 -2.22 -0.72 -2.22 c-0.2 0 -0.16 0.02 -0.18 0.08 l0 1.72 c0 0.04 0.02 0.16 0.02 0.2 c0 0.16 -0.08 0.14 -0.08 0.22 c0 0.06 0.06 0.2 0.06 0.6 l-0.02 0.02 s0.02 0 0.02 0.04 c0 0.02 0 0.06 -0.04 0.14 c0 -0.02 0.04 0.74 0.04 0.82 c0 0.18 -0.04 0.68 -0.04 1.36 c0 0.36 0.04 1.6 0.04 1.68 c0 0.02 -0.02 0.06 -0.04 0.1 c0.04 0.12 0.04 0.18 0.04 0.36 c0 0.14 0 0.3 -0.04 0.3 c0 0.04 0.02 0.08 0.04 0.12 c0 0.62 -0.06 1 -0.06 1.22 c0 0.24 0.06 0.9 0.06 0.9 c0 0.48 -0.06 0.9 -0.06 1.64 c0 0.6 0.08 1.22 0.56 1.22 c0.62 0 1.02 -0.06 1.02 -0.1 c0.4 0 0.54 0.18 0.54 0.38 c0 0.06 -0.08 0.26 -0.38 0.26 c-0.2 0 -0.18 -0.04 -0.28 -0.12 c-0.06 0 -0.12 0.06 -0.18 0.06 s-0.06 -0.06 -0.1 -0.1 c-0.14 0.1 -0.1 0.16 -0.22 0.16 l0 -0.1 c-0.12 0 0 0.08 -0.44 0.08 c-0.02 0 -0.08 -0.02 -0.12 -0.04 c-0.02 0 -0.6 0.06 -1.02 0.06 l-0.1 -0.02 c0.12 -0.06 0.28 -0.06 0.32 -0.1 c-0.24 0 -0.4 0.02 -0.64 0.02 c0.02 0.04 0.16 0.08 0.26 0.08 l-0.1 0 c-0.1 0 -0.22 0.02 -0.28 0.1 l-0.08 -0.04 l-0.36 0 l-0.02 0.04 l-0.28 0 c-0.08 -0.06 -0.22 -0.08 -0.28 -0.1 c0 -0.1 -0.04 -0.1 -0.04 -0.1 z M1.02 19.98 c-0.02 0 -0.04 0.02 -0.04 0.02 c0 0.02 0.02 0.02 0.04 0.02 c0 0 0.02 0 0.02 -0.02 z M4.7 19.94 l0.04 0.04 l0.08 -0.04 l-0.12 0 z M1.78 19.92 l0 0.02 l0.02 -0.02 l-0.02 0 z M3.3 19.94 l0.02 0 l-0.02 0 z M3.42 19.88 c-0.02 0 -0.02 0.02 -0.02 0.04 s0 0.02 0.02 0.02 s0.02 0 0.02 -0.02 s0 -0.04 -0.02 -0.04 z M0.78 19.58 c-0.26 0 -0.28 0.1 -0.28 0.2 l0 0.1 c0.14 -0.06 0.1 -0.2 0.2 -0.22 l0.24 0 l0 -0.04 c-0.02 0 -0.14 -0.04 -0.16 -0.04 z M1.3 19.78 l-0.04 0.04 l0.04 0 l0 -0.04 z M16.82 19.58 l0.22 0.24 c0.02 -0.1 0.02 -0.16 0.04 -0.16 l0 0.1 l-0.04 0.06 c0 -0.2 -0.26 -0.18 -0.26 -0.2 s0 -0.02 0.04 -0.04 z M4.98 19.58 c-0.1 0.02 -0.12 0.04 -0.12 0.12 l0.16 -0.04 c0 -0.04 -0.02 -0.08 -0.04 -0.08 z M7.8 19.54 c0.02 0.04 0.1 0.1 0.16 0.16 c0.04 -0.02 0.06 -0.12 0.08 -0.12 c0 -0.04 -0.06 -0.04 -0.14 -0.04 l-0.1 0 z M16.3 19.62 l0.06 0.08 l0.06 -0.08 l-0.12 0 z M8.06 19.42 c-0.02 0 -0.02 0.02 -0.02 0.04 s0 0.04 0.02 0.04 s0.02 -0.02 0.02 -0.04 s0 -0.04 -0.02 -0.04 z M2.66 16.759999999999998 l0 0.04 l0.02 0 z M5.16 12.16 l0 0.04 l0.04 0 l0 -0.04 l-0.04 0 z M5.14 12 c-0.02 0 -0.04 0.02 -0.04 0.02 c0 0.02 0.02 0.04 0.04 0.04 c0 0 0.02 -0.02 0.02 -0.04 z M2.98 9.78 c-0.02 0 -0.04 0.02 -0.04 0.04 c0 0 0.02 0.02 0.04 0.02 l0.02 -0.02 c0 -0.02 -0.02 -0.04 -0.02 -0.04 z M14.78 8.16 c0 0.06 0 0.08 0.08 0.08 c-0.04 -0.04 -0.06 -0.08 -0.08 -0.08 l0 0 z M15.08 8.16 c-0.04 0.02 -0.06 0.04 -0.06 0.06 s0 0.02 0.02 0.02 s0.02 -0.04 0.04 -0.08 z M11.6 6.92 c-0.02 0 -0.04 0 -0.04 0.02 l0.04 0 l0.02 0 c0 -0.02 0 -0.02 -0.02 -0.02 z M11.96 5.66 c0.02 0.04 0.04 0.06 0.06 0.08 c0.02 0 0.06 0.02 0.06 -0.08 c0 -0.06 0 -0.12 -0.04 -0.12 c-0.06 0 -0.06 0.12 -0.08 0.12 z M0.78 5.42 c0 0.08 0.04 0.1 0.1 0.12 l0.02 -0.04 c-0.02 -0.04 -0.06 -0.06 -0.12 -0.08 z M0.56 5.380000000000001 c-0.02 0 -0.04 0.02 -0.04 0.02 c0 0.02 0.02 0.02 0.04 0.02 c0 0 0.02 0 0.02 -0.02 z M16.36 5.34 l0 0.02 l0.04 0 z M0.52 5.26 l0.04 0.08 s0.12 -0.16 0.14 -0.24 c-0.1 0 -0.18 0.02 -0.18 0.16 z M0.78 5.199999999999999 c-0.02 0 -0.04 0.02 -0.04 0.04 c0 0 0.02 0.02 0.04 0.02 s0.02 -0.02 0.02 -0.02 c0 -0.02 0 -0.04 -0.02 -0.04 z M1.56 5.199999999999999 l0 0.04 l0.04 -0.04 l-0.04 0 z M15.34 5.199999999999999 c-0.02 0 -0.04 0.02 -0.04 0.04 c0 0 0.02 0.02 0.04 0.02 l0.02 -0.02 c0 -0.02 -0.02 -0.04 -0.02 -0.04 z M16.4 5.199999999999999 c-0.02 0 -0.04 0.02 -0.04 0.04 c0 0 0.02 0.02 0.04 0.02 l0.02 -0.02 c0 -0.02 -0.02 -0.04 -0.02 -0.04 z M12.66 5.140000000000001 l0.04 0.06 c0.06 0 0.06 -0.02 0.06 -0.04 c0 0 0 -0.02 -0.02 -0.06 c-0.06 0 -0.06 0.02 -0.08 0.04 z M13.12 5.1 l0 0.1 l0.06 0 l0 -0.1 l-0.06 0 z M15.3 5.199999999999999 c0 -0.02 -0.02 -0.02 -0.02 -0.02 l0 0.06 s0.02 -0.02 0.02 -0.04 z M15.4 5.140000000000001 l-0.04 0.04 l0.04 0 l0 -0.04 z M15.64 5.140000000000001 c-0.02 0 -0.04 0.02 -0.04 0.04 c0 0 0.02 0.02 0.04 0.02 l0 -0.06 z M16.74 5.1 l0 0.08 l0.04 0 l0 -0.08 l-0.04 0 z M16.5 5.1 l-0.02 -0.02 c-0.02 0 -0.02 0.02 -0.02 0.02 c0 0.02 0 0.04 0.02 0.04 c0 0 0.02 -0.02 0.02 -0.04 z M20.859 19.72 l0 -0.1 l0.24 -0.24 l0.98 0 l0.08 0.04 l0.46 0.04 c0.08 0.04 0.18 -0.26 0.24 -0.26 l0 -2.42 c0 -0.02 -0.04 -0.26 -0.04 -0.28 c0 0 0.04 -0.48 0.04 -0.58 c0.04 -0.06 -0.06 0.08 -0.06 -0.32 c0 -0.04 0.06 -0.08 0.06 -0.16 c0 -0.14 -0.04 -0.22 -0.04 -0.32 c0 -0.04 0.04 -0.18 0.04 -0.26 l0 -1.26 c0 -0.18 -0.06 -0.5 -0.06 -0.74 l0.02 -1.72 c-0.02 -0.08 -0.02 -0.6 -0.02 -0.7 c0 -0.06 0.02 -0.52 0.02 -0.58 c0 -0.02 -0.02 -1.04 -0.02 -1.16 c0 -1.24 0.02 -1.46 0.02 -2 c0 -0.24 0 -0.76 -0.02 -0.92 l-0.12 -0.14 s-0.4 -0.02 -0.56 -0.02 c-0.26 0 -0.46 0.06 -0.7 0.06 c-0.22 -0.04 -0.44 0.12 -0.64 -0.34 c0 -0.18 0.04 -0.4 0.22 -0.44 c4.08 0 4.5 0.04 6.12 0.04 c3.88 0 3.66 -0.04 5.28 -0.04 c0.2 0 0.42 3.66 0.42 3.84 c0 0.02 0.02 0.02 0.02 0.04 c0 0.24 -0.36 0.42 -0.48 0.42 c-0.26 0 -0.4 -0.28 -0.48 -0.6 c0.08 0 -0.86 -1.54 -0.82 -1.46 c-0.26 -0.26 -0.28 -0.3 -0.44 -0.5 c0 -0.18 -0.86 -0.58 -0.96 -0.72 c0 0.02 -0.02 0.02 -0.02 0.02 c-0.06 0 -0.12 -0.24 -0.54 -0.24 c-0.56 0 -0.52 -0.08 -1.38 -0.08 l0 -0.04 l-0.62 0 l-0.04 0.04 l-0.26 0 l0.14 -0.04 c-0.46 0 -0.66 -0.06 -0.78 -0.06 c-0.18 0 -0.4 0.1 -0.4 0.68 c0 1.12 0.04 1.72 0.04 2 c0 0.3 -0.04 1.18 -0.04 1.3 c0 0.34 0.08 0.62 0.08 0.86 c-0.04 0 -0.08 0.14 -0.08 0.2 s0.08 0.44 0.08 0.62 c0 0.04 -0.04 0.1 -0.04 0.12 c0 0.06 -0.06 0.82 0.14 0.82 c0.46 0 0.8 -0.12 1.16 -0.12 l0 0.02 c0.06 0 0.24 -0.3 0.38 -0.3 c0.24 0 0.28 -0.08 0.54 -0.34 l0 0.02 c-0.02 0 0.34 -0.72 0.54 -0.96 c0.34 -0.16 -0.12 -1 0.88 -1 l0.06 0.04 c0 0.18 0.1 0.24 0.1 0.8 c-0.02 0.16 -0.04 0.68 -0.04 0.64 c0 0.22 0.04 0.56 0.04 0.84 c0 0.24 0 0.24 -0.04 0.36 c0 0.2 0.04 0.46 0.04 0.52 c0 0.26 -0.04 0.26 -0.04 0.46 c0 0.16 0.04 1.24 0.04 1.38 c0 0.08 -0.04 0.16 -0.04 0.28 l0 0.74 c0.02 0.02 -0.16 0.16 -0.26 0.16 c-0.64 0 -0.1 -0.12 -0.82 -1.42 c-0.56 -0.98 -0.74 -0.94 -1.06 -1.22 c0.02 0 -0.58 -0.2 -0.72 -0.2 l-0.06 -0.1 l-0.64 -0.02 c-0.3 0.16 -0.26 1 -0.26 0.68 c0 0.08 0.06 0.28 0.06 0.58 c0 0.14 -0.02 0.38 -0.06 0.6 c0 0.02 0.06 0.2 0.06 0.32 c0 0.2 -0.04 0.18 -0.04 0.26 c0 0.14 0.04 0.22 0.04 0.28 c-0.06 0.78 -0.08 2.18 -0.08 2.42 c0 1.26 -0.02 1.36 0.28 1.66 l0.86 0 c0.08 -0.02 0.18 -0.08 0.26 -0.08 c0.02 0 1.2 0.04 1.36 0.04 s0.02 -0.1 0.44 -0.1 c0.76 -0.3 0.72 -0.04 1.36 -0.54 c-0.02 0 -0.02 -0.02 -0.02 -0.02 c0 -0.06 0.5 -0.28 0.76 -0.6 c-0.02 0 -0.02 -0.02 -0.02 -0.02 c0 -0.3 0.88 -0.52 0.88 -1.24 c0 -0.08 0.36 -0.54 0.36 -0.66 c0.5 -1.26 0.18 -1.2 0.82 -1.2 c0.02 0 0.24 0 0.24 0.26 c0 1.3 -0.2 2.9 -0.2 3.8 c0 0.14 0.02 0.28 0.02 0.42 c0 0.24 -0.08 0.44 -0.56 0.44 l-7.7 0 c-1.16 0 -1.58 0.04 -3.72 0.04 c-0.38 -0.12 -0.28 -0.28 -0.28 -0.32 z M21.059 19.8 l0 -0.02 l0 0.06 c0 0.06 0.02 0.14 0.2 0.14 c0.04 0 0.1 0 0.16 -0.02 l0 -0.04 l-0.16 -0.18 c-0.02 0.04 -0.04 0.08 -0.08 0.1 c-0.02 0 -0.08 -0.02 -0.12 -0.06 l0 0.02 z M28.159000000000002 19.88 l0.02 0.04 c0.02 -0.02 0.02 -0.02 0.02 -0.08 z M27.379 19.84 c-0.06 0 -0.08 0 -0.1 0.04 l0.1 0 l0 -0.04 z M21.759 19.62 c0.04 0 0.12 0.04 0.14 0.04 c0.18 0 0.12 0 0.18 -0.04 c-0.04 0 -0.18 -0.04 -0.2 -0.04 c-0.08 0 -0.08 0 -0.12 0.04 z M32.739000000000004 19.62 c0.02 0.06 0.08 0.04 0.12 0.04 c-0.02 -0.04 -0.06 -0.04 -0.12 -0.04 z M23.299 19.62 c0 -0.02 -0.02 -0.02 -0.04 -0.02 s-0.04 0 -0.04 0.02 s0.02 0.04 0.04 0.04 s0.04 -0.02 0.04 -0.04 z M21.179000000000002 19.56 l0 0.02 l0.2 0 c-0.04 -0.02 -0.16 -0.02 -0.2 -0.02 z M23.019000000000002 16.9 l-0.02 -0.02 c-0.02 0 -0.02 0.02 -0.02 0.02 c0 0.02 0 0.04 0.02 0.04 c0 0 0.02 -0.02 0.02 -0.04 z M22.979000000000003 16.04 l0 0.08 c0.02 0 0.02 -0.02 0.02 -0.04 s0 -0.04 -0.02 -0.04 z M23.019000000000002 15.92 c0.02 0.04 0.06 0.04 0.12 0.04 c0 -0.04 0.02 -0.16 -0.04 -0.2 c0 0.04 -0.08 0.1 -0.08 0.16 z M23.139000000000003 15.54 c0 0.02 0 0.04 0.02 0.06 l0.02 -0.06 l-0.04 0 z M33.139 15.54 c-0.02 0 -0.04 0.02 -0.04 0.04 c0 0 0.02 0.02 0.04 0.02 s0.02 -0.02 0.02 -0.02 c0 -0.02 0 -0.04 -0.02 -0.04 z M33.239000000000004 15.5 c-0.02 0 -0.02 0.02 -0.02 0.04 c0 0 0 0.02 0.02 0.02 l0 -0.06 z M23.019000000000002 12.48 c-0.02 0 -0.04 0.02 -0.04 0.04 c0 0 0.02 0.02 0.04 0.02 s0.02 -0.02 0.02 -0.02 c0 -0.02 0 -0.04 -0.02 -0.04 z M23.159000000000002 12.48 c0 -0.02 0 -0.02 -0.02 -0.02 l0 0.04 c0.02 0 0.02 0 0.02 -0.02 z M23.019000000000002 11.6 l-0.02 -0.02 c-0.02 0 -0.02 0.02 -0.02 0.02 c0 0.02 0 0.04 0.02 0.04 c0 0 0.02 -0.02 0.02 -0.04 z M29.399 9.92 c0 -0.02 -0.02 -0.02 -0.04 -0.02 c0 0 -0.02 0 -0.02 0.02 s0.02 0.04 0.02 0.04 c0.02 0 0.04 -0.02 0.04 -0.04 z M32.239000000000004 8.96 c-0.02 0 -0.04 0.02 -0.04 0.04 c0 0 0.02 0.02 0.04 0.02 s0.02 -0.02 0.02 -0.02 c0 -0.02 0 -0.04 -0.02 -0.04 z M25.279000000000003 7.960000000000001 c-0.02 0.02 -0.02 0.06 -0.02 0.08 l0.22 0 c-0.02 -0.04 -0.1 -0.08 -0.2 -0.08 z M22.979000000000003 7.18 l0 0.08 c0.02 0 0.02 -0.02 0.02 -0.04 s0 -0.04 -0.02 -0.04 z M22.979000000000003 6.16 l0 0.08 c0.02 0 0.02 -0.02 0.02 -0.04 s0 -0.04 -0.02 -0.04 z M32.439 5.42 l0 0.2 l0.02 -0.1 c0 -0.04 0 -0.06 -0.02 -0.1 z M22.279 5.539999999999999 c-0.02 0 -0.02 0.02 -0.02 0.04 s0 0.04 0.02 0.04 s0.02 -0.02 0.02 -0.04 s0 -0.04 -0.02 -0.04 z M23.959000000000003 5.58 c0 -0.02 -0.02 -0.02 -0.02 -0.02 c-0.02 0 -0.02 0 -0.02 0.02 s0 0.04 0.02 0.04 c0 0 0.02 -0.02 0.02 -0.04 z M21.719 5.380000000000001 c-0.18 0 -0.08 0.14 -0.14 0.16 c0.12 0 0.14 -0.02 0.14 -0.06 c0 -0.02 -0.02 -0.04 -0.02 -0.06 s0.02 -0.02 0.02 -0.04 z M22.199 5.48 l0.06 0.04 l0.02 -0.04 l-0.04 -0.02 z M21.319000000000003 5.42 c-0.02 0 -0.02 0.02 -0.02 0.04 c0 0 0 0.02 0.02 0.02 s0.02 -0.02 0.02 -0.02 c0 -0.02 0 -0.04 -0.02 -0.04 z M21.519000000000002 5.34 l-0.14 0.04 l0.14 0 l0 -0.04 z M23.299 5.34 c-0.02 0 -0.04 0.02 -0.04 0.02 c0 0.02 0.02 0.02 0.04 0.02 c0 0 0.02 0 0.02 -0.02 z M25.319000000000003 5.34 l0 0.04 l0.02 0 z M21.619 5.34 l-0.04 0 c0 0.02 0 0.04 0.02 0.04 c0 0 0.02 -0.02 0.02 -0.04 z M22.079 5.32 c-0.04 0 -0.04 0.04 -0.04 0.04 c0.02 0 0.02 -0.02 0.04 -0.04 z M22.939 5.34 l-0.04 0 c0 0.02 0 0.04 0.02 0.04 c0 0 0.02 -0.02 0.02 -0.04 z M26.199 5.32 c-0.04 0 -0.08 0.02 -0.12 0.02 l0.14 0 z M21.019000000000002 5.32 c0 0 0 -0.02 -0.02 -0.02 l0 0.04 c0.02 0 0.02 0 0.02 -0.02 z M27.059 5.26 c0 0.08 0.02 0.04 0.04 0.06 c0 0 0.02 0 0.04 -0.02 l-0.04 -0.08 z M32.359 5.0600000000000005 l0 0.24 l0.04 0 c0 -0.06 0.02 -0.24 -0.04 -0.24 z M21.839000000000002 5.1 c-0.02 0 -0.04 0.02 -0.04 0.02 c0 0.02 0.02 0.02 0.04 0.02 s0.02 0 0.02 -0.02 c0 0 0 -0.02 -0.02 -0.02 z M21.179000000000002 5.1 l-0.02 -0.04 z M21.419 5.02 c-0.04 0.02 -0.06 0.04 -0.06 0.06 l0.02 0.02 l0.04 0 l0 -0.08 z M37.578 19.92 c-0.04 0 -0.06 0.02 -0.08 0.02 l0.08 0.08 c-0.02 0 -0.08 0.06 -0.22 0.06 c-0.16 0 -0.28 -0.22 -0.28 -0.32 c0 -0.2 0.06 -0.26 0.9 -0.26 c0.38 0 1.04 -0.02 1.12 -0.16 c0 0 0.08 -0.6 0.12 -0.66 c0 0 -0.04 -0.84 -0.04 -0.92 c0 -0.02 0.04 -0.16 0.04 -0.22 c0 -0.04 0 -0.08 -0.04 -0.16 l0 -2.52 l0.04 -0.06 c0 -0.6 -0.08 -1.04 -0.08 -1.58 c0 -0.5 0.04 -0.8 0.04 -1.16 l0 -6.24 c-0.06 -0.06 -0.14 -0.28 -0.2 -0.28 c0.02 0 -0.7 0.08 -1.32 0.08 c-0.16 0 -0.6 0 -0.6 -0.2 l0 -0.32 c-0.02 -0.02 0.14 -0.12 0.44 -0.12 l4.7 0 c0.18 0 0.28 0.02 0.4 0.16 c-0.02 0.02 -0.02 0.04 -0.02 0.06 c0 0.14 0.2 0.26 0.2 0.54 c-0.02 0 -0.02 -0.02 -0.02 -0.02 c-0.02 0 -0.02 0.02 -0.02 0.02 c0 0.12 0.46 0.96 0.46 1.48 c0 0.4 0.26 0.62 0.26 0.94 c-0.02 0.02 -0.02 0.02 -0.02 0.04 c0 0.08 0.26 0.3 0.26 0.76 c-0.02 0.02 -0.02 0.02 -0.02 0.04 c0 0.04 0.16 0.1 0.16 0.46 c0 0.02 -0.02 0.02 -0.02 0.04 c0 0.08 0.18 0.12 0.18 0.54 c0.08 0.88 0.3 0.8 0.3 0.92 c0.02 0.6 0.42 0.76 0.42 1.52 c0 0.28 0.34 0.78 0.34 1.16 c0.22 0.38 -0.06 0.24 0.44 1.2 l0.2 0 c0.08 -0.5 0.46 -1 0.46 -1.38 c0.06 -1.06 0.48 -0.96 0.48 -1.72 l0 -0.02 c0 -0.1 0.3 -0.62 0.3 -0.98 c0 -0.52 0.22 -0.6 0.22 -0.84 l-0.04 0 c0 -0.02 0.2 -0.1 0.2 -0.44 c0.08 -1.58 0.62 -1.2 0.62 -2.08 c0.2 -1.98 0.64 -1.22 0.64 -2.24 c-0.02 0 -0.02 0 -0.02 -0.02 c0 -0.04 0.32 -0.18 0.76 -0.18 c0.1 0 0.9 0.04 1 0.04 c0.12 0 1.76 -0.04 2.82 -0.04 c0.38 0 0.78 0.16 0.76 0.16 l0 0.28 l-0.04 0.04 c-0.04 0 -0.16 0.12 -0.2 0.12 l-0.04 0.04 c-0.54 0 -0.96 -0.08 -1.24 -0.08 c-0.12 0 -0.3 -0.02 -0.42 0.32 l0 7.14 c0 0.04 0.04 0.26 0.04 0.32 c0 0.04 -0.04 0.36 -0.04 0.38 s-0.02 0.02 -0.02 0.04 s0.02 0.06 0.06 0.12 c0 3.62 -0.08 2.68 -0.08 4.44 c0 0.6 0.1 1.2 0.58 1.2 c0.1 0 0.22 -0.06 0.3 -0.06 l0.48 0 l0.02 0.02 c0.2 0 0.08 -0.02 0.34 -0.02 c0.24 0 0.3 0.28 0.3 0.32 c0 0.1 -0.04 0.22 -0.18 0.22 c-0.16 0 -0.18 0.04 -0.18 0.04 c-0.08 0 -0.52 -0.04 -0.58 -0.04 c-0.96 0 -1.36 0.06 -2 0.06 c-0.18 0 -0.44 -0.06 -0.68 -0.06 c-0.5 0 -0.54 0.04 -0.74 0.04 c-0.4 0 -1.02 -0.06 -1.06 -0.06 c0 0.06 -0.76 0.06 -0.84 0.06 c-0.32 0 -0.32 -0.02 -0.42 -0.06 l0.06 -0.04 c0 -0.04 -0.04 -0.12 -0.06 -0.18 c-0.04 0.02 -0.04 0.06 -0.04 0.1 l0 0.08 c-0.08 0 -0.12 0 -0.12 -0.02 l0 -0.28 c0.16 -0.06 0.3 -0.16 0.36 -0.18 l0.76 0 c0.04 0.02 0 0.02 0.14 0.02 c0.02 0 0.04 0 0.04 -0.04 l0.4 0 c0 0.02 0.02 0.02 0.04 0.02 c0.1 0 0.26 -0.5 0.26 -1.7 c0 -1.56 -0.04 -1.98 -0.04 -2.8 c0 -0.02 0 -0.04 0.04 -0.1 c0 0.06 -0.1 -3.48 -0.1 -4.6 c-0.02 0.02 -0.02 0.04 -0.02 0.04 l0 0 s0.1 -0.88 0.1 -2.2 c0 -0.6 -0.04 -1.12 -0.24 -1.12 c0 -0.02 0.02 -0.02 0.02 -0.02 c-0.3 0 -0.28 1.04 -0.64 1.7 c0.02 0 0.02 0.02 0.02 0.04 c0 0.1 -0.22 0.38 -0.22 0.6 c0 0.02 0.02 0.04 0.02 0.06 c-0.06 -0.02 -0.04 0.36 -0.2 0.52 c0 1.04 -0.54 1.14 -0.54 1.92 c-0.14 0.6 -0.3 0.46 -0.3 1.02 c-0.04 0.42 -0.52 1.18 -0.52 1.48 c0 0.64 -0.24 0.3 -0.24 0.94 l0.02 0 c0 0.06 -0.28 0.46 -0.28 0.88 c0 1 -0.68 1.36 -0.68 2.14 c0 0.52 -0.32 0.82 -0.32 1.1 c0 0.04 -0.04 0.76 -0.5 0.76 c-0.42 0 -0.74 -0.92 -0.74 -1.4 c-0.16 -0.7 -0.22 -0.88 -0.54 -1.82 c-0.14 -0.68 -0.42 -0.9 -0.42 -1.26 c0 -0.28 -0.3 -0.64 -0.3 -0.9 c-0.04 -0.56 -0.06 0.04 -0.56 -1.94 c0 0 -0.12 -0.58 -0.2 -0.64 l0 -0.14 s0 -0.04 0.02 -0.06 c0.02 0.02 0.08 0.04 0.1 0.04 s0.02 0 0.02 -0.02 s-0.02 -0.06 -0.04 -0.08 c-0.04 0 -0.08 0 -0.12 0.02 c-0.06 -0.04 -0.28 -0.48 -0.28 -0.76 c-0.04 -0.74 -0.46 -1.44 -0.66 -2.14 l0 0.02 c-0.04 0 -0.46 -2.22 -0.72 -2.22 c-0.2 0 -0.16 0.02 -0.18 0.08 l0 1.72 c0 0.04 0.02 0.16 0.02 0.2 c0 0.16 -0.08 0.14 -0.08 0.22 c0 0.06 0.06 0.2 0.06 0.6 l-0.02 0.02 s0.02 0 0.02 0.04 c0 0.02 0 0.06 -0.04 0.14 c0 -0.02 0.04 0.74 0.04 0.82 c0 0.18 -0.04 0.68 -0.04 1.36 c0 0.36 0.04 1.6 0.04 1.68 c0 0.02 -0.02 0.06 -0.04 0.1 c0.04 0.12 0.04 0.18 0.04 0.36 c0 0.14 0 0.3 -0.04 0.3 c0 0.04 0.02 0.08 0.04 0.12 c0 0.62 -0.06 1 -0.06 1.22 c0 0.24 0.06 0.9 0.06 0.9 c0 0.48 -0.06 0.9 -0.06 1.64 c0 0.6 0.08 1.22 0.56 1.22 c0.62 0 1.02 -0.06 1.02 -0.1 c0.4 0 0.54 0.18 0.54 0.38 c0 0.06 -0.08 0.26 -0.38 0.26 c-0.2 0 -0.18 -0.04 -0.28 -0.12 c-0.06 0 -0.12 0.06 -0.18 0.06 s-0.06 -0.06 -0.1 -0.1 c-0.14 0.1 -0.1 0.16 -0.22 0.16 l0 -0.1 c-0.12 0 0 0.08 -0.44 0.08 c-0.02 0 -0.08 -0.02 -0.12 -0.04 c-0.02 0 -0.6 0.06 -1.02 0.06 l-0.1 -0.02 c0.12 -0.06 0.28 -0.06 0.32 -0.1 c-0.24 0 -0.4 0.02 -0.64 0.02 c0.02 0.04 0.16 0.08 0.26 0.08 l-0.1 0 c-0.1 0 -0.22 0.02 -0.28 0.1 l-0.08 -0.04 l-0.36 0 l-0.02 0.04 l-0.28 0 c-0.08 -0.06 -0.22 -0.08 -0.28 -0.1 c0 -0.1 -0.04 -0.1 -0.04 -0.1 z M37.73800000000001 19.98 c-0.02 0 -0.04 0.02 -0.04 0.02 c0 0.02 0.02 0.02 0.04 0.02 c0 0 0.02 0 0.02 -0.02 z M41.418000000000006 19.94 l0.04 0.04 l0.08 -0.04 l-0.12 0 z M38.498000000000005 19.92 l0 0.02 l0.02 -0.02 l-0.02 0 z M40.018 19.94 l0.02 0 l-0.02 0 z M40.138000000000005 19.88 c-0.02 0 -0.02 0.02 -0.02 0.04 s0 0.02 0.02 0.02 s0.02 0 0.02 -0.02 s0 -0.04 -0.02 -0.04 z M37.498000000000005 19.58 c-0.26 0 -0.28 0.1 -0.28 0.2 l0 0.1 c0.14 -0.06 0.1 -0.2 0.2 -0.22 l0.24 0 l0 -0.04 c-0.02 0 -0.14 -0.04 -0.16 -0.04 z M38.018 19.78 l-0.04 0.04 l0.04 0 l0 -0.04 z M53.538000000000004 19.58 l0.22 0.24 c0.02 -0.1 0.02 -0.16 0.04 -0.16 l0 0.1 l-0.04 0.06 c0 -0.2 -0.26 -0.18 -0.26 -0.2 s0 -0.02 0.04 -0.04 z M41.69800000000001 19.58 c-0.1 0.02 -0.12 0.04 -0.12 0.12 l0.16 -0.04 c0 -0.04 -0.02 -0.08 -0.04 -0.08 z M44.518 19.54 c0.02 0.04 0.1 0.1 0.16 0.16 c0.04 -0.02 0.06 -0.12 0.08 -0.12 c0 -0.04 -0.06 -0.04 -0.14 -0.04 l-0.1 0 z M53.018 19.62 l0.06 0.08 l0.06 -0.08 l-0.12 0 z M44.778000000000006 19.42 c-0.02 0 -0.02 0.02 -0.02 0.04 s0 0.04 0.02 0.04 s0.02 -0.02 0.02 -0.04 s0 -0.04 -0.02 -0.04 z M39.378 16.759999999999998 l0 0.04 l0.02 0 z M41.878 12.16 l0 0.04 l0.04 0 l0 -0.04 l-0.04 0 z M41.858000000000004 12 c-0.02 0 -0.04 0.02 -0.04 0.02 c0 0.02 0.02 0.04 0.04 0.04 c0 0 0.02 -0.02 0.02 -0.04 z M39.698 9.78 c-0.02 0 -0.04 0.02 -0.04 0.04 c0 0 0.02 0.02 0.04 0.02 l0.02 -0.02 c0 -0.02 -0.02 -0.04 -0.02 -0.04 z M51.498000000000005 8.16 c0 0.06 0 0.08 0.08 0.08 c-0.04 -0.04 -0.06 -0.08 -0.08 -0.08 l0 0 z M51.798 8.16 c-0.04 0.02 -0.06 0.04 -0.06 0.06 s0 0.02 0.02 0.02 s0.02 -0.04 0.04 -0.08 z M48.318000000000005 6.92 c-0.02 0 -0.04 0 -0.04 0.02 l0.04 0 l0.02 0 c0 -0.02 0 -0.02 -0.02 -0.02 z M48.678000000000004 5.66 c0.02 0.04 0.04 0.06 0.06 0.08 c0.02 0 0.06 0.02 0.06 -0.08 c0 -0.06 0 -0.12 -0.04 -0.12 c-0.06 0 -0.06 0.12 -0.08 0.12 z M37.498000000000005 5.42 c0 0.08 0.04 0.1 0.1 0.12 l0.02 -0.04 c-0.02 -0.04 -0.06 -0.06 -0.12 -0.08 z M37.278000000000006 5.380000000000001 c-0.02 0 -0.04 0.02 -0.04 0.02 c0 0.02 0.02 0.02 0.04 0.02 c0 0 0.02 0 0.02 -0.02 z M53.078 5.34 l0 0.02 l0.04 0 z M37.23800000000001 5.26 l0.04 0.08 s0.12 -0.16 0.14 -0.24 c-0.1 0 -0.18 0.02 -0.18 0.16 z M37.498000000000005 5.199999999999999 c-0.02 0 -0.04 0.02 -0.04 0.04 c0 0 0.02 0.02 0.04 0.02 s0.02 -0.02 0.02 -0.02 c0 -0.02 0 -0.04 -0.02 -0.04 z M38.278000000000006 5.199999999999999 l0 0.04 l0.04 -0.04 l-0.04 0 z M52.05800000000001 5.199999999999999 c-0.02 0 -0.04 0.02 -0.04 0.04 c0 0 0.02 0.02 0.04 0.02 l0.02 -0.02 c0 -0.02 -0.02 -0.04 -0.02 -0.04 z M53.118 5.199999999999999 c-0.02 0 -0.04 0.02 -0.04 0.04 c0 0 0.02 0.02 0.04 0.02 l0.02 -0.02 c0 -0.02 -0.02 -0.04 -0.02 -0.04 z M49.378 5.140000000000001 l0.04 0.06 c0.06 0 0.06 -0.02 0.06 -0.04 c0 0 0 -0.02 -0.02 -0.06 c-0.06 0 -0.06 0.02 -0.08 0.04 z M49.838 5.1 l0 0.1 l0.06 0 l0 -0.1 l-0.06 0 z M52.018 5.199999999999999 c0 -0.02 -0.02 -0.02 -0.02 -0.02 l0 0.06 s0.02 -0.02 0.02 -0.04 z M52.118 5.140000000000001 l-0.04 0.04 l0.04 0 l0 -0.04 z M52.358000000000004 5.140000000000001 c-0.02 0 -0.04 0.02 -0.04 0.04 c0 0 0.02 0.02 0.04 0.02 l0 -0.06 z M53.458 5.1 l0 0.08 l0.04 0 l0 -0.08 l-0.04 0 z M53.218 5.1 l-0.02 -0.02 c-0.02 0 -0.02 0.02 -0.02 0.02 c0 0.02 0 0.04 0.02 0.04 c0 0 0.02 -0.02 0.02 -0.04 z M57.577000000000005 19.72 l0 -0.1 l0.24 -0.24 l0.98 0 l0.08 0.04 l0.46 0.04 c0.08 0.04 0.18 -0.26 0.24 -0.26 l0 -2.42 c0 -0.02 -0.04 -0.26 -0.04 -0.28 c0 0 0.04 -0.48 0.04 -0.58 c0.04 -0.06 -0.06 0.08 -0.06 -0.32 c0 -0.04 0.06 -0.08 0.06 -0.16 c0 -0.14 -0.04 -0.22 -0.04 -0.32 c0 -0.04 0.04 -0.18 0.04 -0.26 l0 -1.26 c0 -0.18 -0.06 -0.5 -0.06 -0.74 l0.02 -1.72 c-0.02 -0.08 -0.02 -0.6 -0.02 -0.7 c0 -0.06 0.02 -0.52 0.02 -0.58 c0 -0.02 -0.02 -1.04 -0.02 -1.16 c0 -1.24 0.02 -1.46 0.02 -2 c0 -0.24 0 -0.76 -0.02 -0.92 l-0.12 -0.14 s-0.4 -0.02 -0.56 -0.02 c-0.26 0 -0.46 0.06 -0.7 0.06 c-0.22 -0.04 -0.44 0.12 -0.64 -0.34 c0 -0.18 0.04 -0.4 0.22 -0.44 c4.08 0 4.5 0.04 6.12 0.04 c3.88 0 3.66 -0.04 5.28 -0.04 c0.2 0 0.42 3.66 0.42 3.84 c0 0.02 0.02 0.02 0.02 0.04 c0 0.24 -0.36 0.42 -0.48 0.42 c-0.26 0 -0.4 -0.28 -0.48 -0.6 c0.08 0 -0.86 -1.54 -0.82 -1.46 c-0.26 -0.26 -0.28 -0.3 -0.44 -0.5 c0 -0.18 -0.86 -0.58 -0.96 -0.72 c0 0.02 -0.02 0.02 -0.02 0.02 c-0.06 0 -0.12 -0.24 -0.54 -0.24 c-0.56 0 -0.52 -0.08 -1.38 -0.08 l0 -0.04 l-0.62 0 l-0.04 0.04 l-0.26 0 l0.14 -0.04 c-0.46 0 -0.66 -0.06 -0.78 -0.06 c-0.18 0 -0.4 0.1 -0.4 0.68 c0 1.12 0.04 1.72 0.04 2 c0 0.3 -0.04 1.18 -0.04 1.3 c0 0.34 0.08 0.62 0.08 0.86 c-0.04 0 -0.08 0.14 -0.08 0.2 s0.08 0.44 0.08 0.62 c0 0.04 -0.04 0.1 -0.04 0.12 c0 0.06 -0.06 0.82 0.14 0.82 c0.46 0 0.8 -0.12 1.16 -0.12 l0 0.02 c0.06 0 0.24 -0.3 0.38 -0.3 c0.24 0 0.28 -0.08 0.54 -0.34 l0 0.02 c-0.02 0 0.34 -0.72 0.54 -0.96 c0.34 -0.16 -0.12 -1 0.88 -1 l0.06 0.04 c0 0.18 0.1 0.24 0.1 0.8 c-0.02 0.16 -0.04 0.68 -0.04 0.64 c0 0.22 0.04 0.56 0.04 0.84 c0 0.24 0 0.24 -0.04 0.36 c0 0.2 0.04 0.46 0.04 0.52 c0 0.26 -0.04 0.26 -0.04 0.46 c0 0.16 0.04 1.24 0.04 1.38 c0 0.08 -0.04 0.16 -0.04 0.28 l0 0.74 c0.02 0.02 -0.16 0.16 -0.26 0.16 c-0.64 0 -0.1 -0.12 -0.82 -1.42 c-0.56 -0.98 -0.74 -0.94 -1.06 -1.22 c0.02 0 -0.58 -0.2 -0.72 -0.2 l-0.06 -0.1 l-0.64 -0.02 c-0.3 0.16 -0.26 1 -0.26 0.68 c0 0.08 0.06 0.28 0.06 0.58 c0 0.14 -0.02 0.38 -0.06 0.6 c0 0.02 0.06 0.2 0.06 0.32 c0 0.2 -0.04 0.18 -0.04 0.26 c0 0.14 0.04 0.22 0.04 0.28 c-0.06 0.78 -0.08 2.18 -0.08 2.42 c0 1.26 -0.02 1.36 0.28 1.66 l0.86 0 c0.08 -0.02 0.18 -0.08 0.26 -0.08 c0.02 0 1.2 0.04 1.36 0.04 s0.02 -0.1 0.44 -0.1 c0.76 -0.3 0.72 -0.04 1.36 -0.54 c-0.02 0 -0.02 -0.02 -0.02 -0.02 c0 -0.06 0.5 -0.28 0.76 -0.6 c-0.02 0 -0.02 -0.02 -0.02 -0.02 c0 -0.3 0.88 -0.52 0.88 -1.24 c0 -0.08 0.36 -0.54 0.36 -0.66 c0.5 -1.26 0.18 -1.2 0.82 -1.2 c0.02 0 0.24 0 0.24 0.26 c0 1.3 -0.2 2.9 -0.2 3.8 c0 0.14 0.02 0.28 0.02 0.42 c0 0.24 -0.08 0.44 -0.56 0.44 l-7.7 0 c-1.16 0 -1.58 0.04 -3.72 0.04 c-0.38 -0.12 -0.28 -0.28 -0.28 -0.32 z M57.77700000000001 19.8 l0 -0.02 l0 0.06 c0 0.06 0.02 0.14 0.2 0.14 c0.04 0 0.1 0 0.16 -0.02 l0 -0.04 l-0.16 -0.18 c-0.02 0.04 -0.04 0.08 -0.08 0.1 c-0.02 0 -0.08 -0.02 -0.12 -0.06 l0 0.02 z M64.87700000000001 19.88 l0.02 0.04 c0.02 -0.02 0.02 -0.02 0.02 -0.08 z M64.09700000000001 19.84 c-0.06 0 -0.08 0 -0.1 0.04 l0.1 0 l0 -0.04 z M58.477000000000004 19.62 c0.04 0 0.12 0.04 0.14 0.04 c0.18 0 0.12 0 0.18 -0.04 c-0.04 0 -0.18 -0.04 -0.2 -0.04 c-0.08 0 -0.08 0 -0.12 0.04 z M69.45700000000001 19.62 c0.02 0.06 0.08 0.04 0.12 0.04 c-0.02 -0.04 -0.06 -0.04 -0.12 -0.04 z M60.017 19.62 c0 -0.02 -0.02 -0.02 -0.04 -0.02 s-0.04 0 -0.04 0.02 s0.02 0.04 0.04 0.04 s0.04 -0.02 0.04 -0.04 z M57.897000000000006 19.56 l0 0.02 l0.2 0 c-0.04 -0.02 -0.16 -0.02 -0.2 -0.02 z M59.737 16.9 l-0.02 -0.02 c-0.02 0 -0.02 0.02 -0.02 0.02 c0 0.02 0 0.04 0.02 0.04 c0 0 0.02 -0.02 0.02 -0.04 z M59.697 16.04 l0 0.08 c0.02 0 0.02 -0.02 0.02 -0.04 s0 -0.04 -0.02 -0.04 z M59.737 15.92 c0.02 0.04 0.06 0.04 0.12 0.04 c0 -0.04 0.02 -0.16 -0.04 -0.2 c0 0.04 -0.08 0.1 -0.08 0.16 z M59.857000000000006 15.54 c0 0.02 0 0.04 0.02 0.06 l0.02 -0.06 l-0.04 0 z M69.857 15.54 c-0.02 0 -0.04 0.02 -0.04 0.04 c0 0 0.02 0.02 0.04 0.02 s0.02 -0.02 0.02 -0.02 c0 -0.02 0 -0.04 -0.02 -0.04 z M69.95700000000001 15.5 c-0.02 0 -0.02 0.02 -0.02 0.04 c0 0 0 0.02 0.02 0.02 l0 -0.06 z M59.737 12.48 c-0.02 0 -0.04 0.02 -0.04 0.04 c0 0 0.02 0.02 0.04 0.02 s0.02 -0.02 0.02 -0.02 c0 -0.02 0 -0.04 -0.02 -0.04 z M59.877 12.48 c0 -0.02 0 -0.02 -0.02 -0.02 l0 0.04 c0.02 0 0.02 0 0.02 -0.02 z M59.737 11.6 l-0.02 -0.02 c-0.02 0 -0.02 0.02 -0.02 0.02 c0 0.02 0 0.04 0.02 0.04 c0 0 0.02 -0.02 0.02 -0.04 z M66.117 9.92 c0 -0.02 -0.02 -0.02 -0.04 -0.02 c0 0 -0.02 0 -0.02 0.02 s0.02 0.04 0.02 0.04 c0.02 0 0.04 -0.02 0.04 -0.04 z M68.95700000000001 8.96 c-0.02 0 -0.04 0.02 -0.04 0.04 c0 0 0.02 0.02 0.04 0.02 s0.02 -0.02 0.02 -0.02 c0 -0.02 0 -0.04 -0.02 -0.04 z M61.99700000000001 7.960000000000001 c-0.02 0.02 -0.02 0.06 -0.02 0.08 l0.22 0 c-0.02 -0.04 -0.1 -0.08 -0.2 -0.08 z M59.697 7.18 l0 0.08 c0.02 0 0.02 -0.02 0.02 -0.04 s0 -0.04 -0.02 -0.04 z M59.697 6.16 l0 0.08 c0.02 0 0.02 -0.02 0.02 -0.04 s0 -0.04 -0.02 -0.04 z M69.15700000000001 5.42 l0 0.2 l0.02 -0.1 c0 -0.04 0 -0.06 -0.02 -0.1 z M58.99700000000001 5.539999999999999 c-0.02 0 -0.02 0.02 -0.02 0.04 s0 0.04 0.02 0.04 s0.02 -0.02 0.02 -0.04 s0 -0.04 -0.02 -0.04 z M60.67700000000001 5.58 c0 -0.02 -0.02 -0.02 -0.02 -0.02 c-0.02 0 -0.02 0 -0.02 0.02 s0 0.04 0.02 0.04 c0 0 0.02 -0.02 0.02 -0.04 z M58.437000000000005 5.380000000000001 c-0.18 0 -0.08 0.14 -0.14 0.16 c0.12 0 0.14 -0.02 0.14 -0.06 c0 -0.02 -0.02 -0.04 -0.02 -0.06 s0.02 -0.02 0.02 -0.04 z M58.917 5.48 l0.06 0.04 l0.02 -0.04 l-0.04 -0.02 z M58.037000000000006 5.42 c-0.02 0 -0.02 0.02 -0.02 0.04 c0 0 0 0.02 0.02 0.02 s0.02 -0.02 0.02 -0.02 c0 -0.02 0 -0.04 -0.02 -0.04 z M58.237 5.34 l-0.14 0.04 l0.14 0 l0 -0.04 z M60.017 5.34 c-0.02 0 -0.04 0.02 -0.04 0.02 c0 0.02 0.02 0.02 0.04 0.02 c0 0 0.02 0 0.02 -0.02 z M62.037000000000006 5.34 l0 0.04 l0.02 0 z M58.337 5.34 l-0.04 0 c0 0.02 0 0.04 0.02 0.04 c0 0 0.02 -0.02 0.02 -0.04 z M58.797000000000004 5.32 c-0.04 0 -0.04 0.04 -0.04 0.04 c0.02 0 0.02 -0.02 0.04 -0.04 z M59.657000000000004 5.34 l-0.04 0 c0 0.02 0 0.04 0.02 0.04 c0 0 0.02 -0.02 0.02 -0.04 z M62.917 5.32 c-0.04 0 -0.08 0.02 -0.12 0.02 l0.14 0 z M57.737 5.32 c0 0 0 -0.02 -0.02 -0.02 l0 0.04 c0.02 0 0.02 0 0.02 -0.02 z M63.777 5.26 c0 0.08 0.02 0.04 0.04 0.06 c0 0 0.02 0 0.04 -0.02 l-0.04 -0.08 z M69.077 5.0600000000000005 l0 0.24 l0.04 0 c0 -0.06 0.02 -0.24 -0.04 -0.24 z M58.557 5.1 c-0.02 0 -0.04 0.02 -0.04 0.02 c0 0.02 0.02 0.02 0.04 0.02 s0.02 0 0.02 -0.02 c0 0 0 -0.02 -0.02 -0.02 z M57.897000000000006 5.1 l-0.02 -0.04 z M58.13700000000001 5.02 c-0.04 0.02 -0.06 0.04 -0.06 0.06 l0.02 0.02 l0.04 0 l0 -0.08 z"></path>
  </g>
  <g id="SvgjsG1663" featurekey="inlineSymbolFeature-0"
    transform="matrix(1.2052409699550182,0,0,1.2052409699550182,167.1471433419723,-16.866153002346504)"
    fill="#f0fff3">
    <g xmlns="http://www.w3.org/2000/svg">
      <path
        d="M30.212,62.258c-0.08,0.253-0.057,0.527,0.065,0.763c4.029,7.786,11.958,12.637,20.721,12.699   c0.036,0.004,0.072,0.006,0.108,0.006c0.003,0,0.006-0.002,0.009-0.002c0.018,0,0.035,0.002,0.052,0.002c0,0,0,0,0,0   c3.724,0,7.452-0.911,10.781-2.633c5.575-2.885,9.693-7.768,11.595-13.75c1.371-4.311,1.466-8.819,0.336-13.089   c-0.001-0.002-0.001-0.005-0.002-0.008c-0.438-1.652-1.053-3.269-1.857-4.823c-0.253-0.491-0.856-0.683-1.348-0.429L30.706,61.673   C30.47,61.795,30.292,62.006,30.212,62.258z M61.03,71.316c-2.762,1.429-5.707,2.224-8.767,2.377c0.418-2.347,1.29-3.991,2.6-4.891   c1.733-1.19,3.738-0.677,3.752-0.672c0.501,0.14,1.027-0.133,1.208-0.621c0.007-0.02,0.745-1.952,2.717-2.679   c1.49-0.548,3.331-0.312,5.483,0.697C66.151,67.902,63.795,69.885,61.03,71.316z M71.638,58.736   c-0.586,1.844-1.421,3.562-2.441,5.146c-2.806-1.386-5.289-1.702-7.384-0.915c-1.923,0.722-2.998,2.185-3.505,3.09   c-1.032-0.109-2.847-0.077-4.547,1.077c-1.854,1.256-3.03,3.468-3.519,6.562c-5.531-0.234-10.647-2.55-14.416-6.389   c3.207-0.857,10.708-3.128,19.229-7.537c8.51-4.403,14.692-9.21,17.25-11.336C72.918,51.833,72.715,55.351,71.638,58.736z    M70.683,43.239c0.453,0.981,0.806,1.991,1.104,3.012c-1.752,1.502-8.359,6.936-17.651,11.743   c-9.308,4.816-17.573,7.072-19.795,7.629c-0.659-0.83-1.269-1.708-1.808-2.644L70.683,43.239z"></path>
      <path
        d="M50.029,86.007c5.704,0,11.415-1.395,16.516-4.034c8.541-4.419,14.849-11.899,17.763-21.063   c2.915-9.164,2.085-18.914-2.334-27.454c-6.212-12.005-18.475-19.462-32.002-19.462c-5.704,0-11.415,1.395-16.515,4.034   c-8.541,4.419-14.849,11.9-17.763,21.064c-2.915,9.164-2.085,18.914,2.334,27.454C24.239,78.55,36.501,86.007,50.029,86.007z    M17.599,39.697c2.752-8.655,8.71-15.72,16.776-19.894c4.817-2.493,10.21-3.81,15.596-3.81c12.777,0,24.359,7.043,30.226,18.381   c4.174,8.066,4.957,17.274,2.205,25.929c-2.752,8.655-8.71,15.72-16.776,19.893c-4.818,2.493-10.211,3.811-15.597,3.811   c-12.777,0-24.358-7.043-30.226-18.382C15.629,57.56,14.846,48.352,17.599,39.697z"></path>
      <path
        d="M25.439,46.865l10.912-1.062l-7.169,8.294c-0.361,0.417-0.315,1.049,0.103,1.41c0.189,0.164,0.422,0.244,0.653,0.244   c0.28,0,0.559-0.117,0.757-0.346L39.5,45.219c0.268-0.309,0.32-0.75,0.132-1.113c-0.188-0.364-0.583-0.581-0.985-0.536l-13.4,1.305   c-0.55,0.053-0.952,0.542-0.898,1.092C24.401,46.517,24.891,46.919,25.439,46.865z"></path>
      <path
        d="M52.065,38.672c0.032,0,0.065-0.001,0.097-0.005l13.399-1.304c0.55-0.053,0.952-0.542,0.898-1.092   c-0.053-0.55-0.542-0.951-1.092-0.898l-10.911,1.062l7.168-8.293c0.361-0.417,0.315-1.049-0.103-1.41   c-0.418-0.362-1.05-0.315-1.41,0.103l-8.804,10.185c-0.268,0.309-0.32,0.75-0.132,1.113C51.35,38.466,51.694,38.672,52.065,38.672z   "></path>
    </g>
  </g>
  <g id="SvgjsG1664" featurekey="nameRightFeature-0"
    transform="matrix(2.2855685387220834,0,0,2.2855685387220834,263.8225578206779,14.983554891639688)"
    fill="#f0fff3">
    <path
      d="M17.959 17.28 l0 -0.1 c-0.02 0 -0.22 -0.6 -0.26 -0.68 c0.02 0 0.02 -0.02 0.02 -0.02 c0 -0.06 -0.18 -0.24 -0.18 -0.48 c0 -0.06 0 -0.06 0.04 -0.12 l-0.1 0 l-0.1 -0.2 l0.02 0 c0 -0.08 -0.34 -0.58 -0.34 -0.84 c0 -0.1 -0.32 -0.56 -0.32 -0.84 c0.06 -0.1 -0.26 -0.32 -0.26 -0.6 c-0.06 -0.32 0 -0.12 -0.32 -0.96 c0.02 -0.02 0.08 -0.04 0.12 -0.06 c0 -0.06 0 -0.04 -0.02 -0.06 c-0.14 0 -0.1 0 -0.16 0.02 c0 -0.2 -0.04 -0.3 -0.14 -0.38 c-0.18 -1.2 -0.5 -0.6 -0.5 -1.46 c0.02 0.02 -0.34 -0.48 -0.42 -1.02 l0.02 -0.02 c0 -0.1 -0.24 -0.26 -0.24 -0.6 c0 0 0.02 0 0.02 -0.02 c0 -0.12 -0.32 -0.48 -0.32 -0.74 c-0.06 0.04 -0.08 -0.52 -0.2 -0.62 c0.02 -0.2 -0.36 -0.58 -0.38 -1.06 c0 -0.08 -0.26 -0.8 -0.4 -0.8 c-0.02 0 -0.12 0.1 -0.16 0.1 l-0.76 0 c-0.02 0.02 -0.14 0.04 -0.16 0.06 c-0.34 0 -0.34 0 -0.54 -0.22 c0 -0.2 -0.3 -0.46 1.06 -0.46 l0.04 -0.04 c0.16 0 0.2 0.08 0.86 0.08 c1.32 0 2.38 -0.08 3.12 -0.08 c0.24 0 0.46 0.08 0.94 0.08 c0.2 0 0.56 -0.04 0.54 -0.08 c0.04 0 0.1 0.04 0.1 0.04 l0.56 0 l0.04 -0.04 s0.06 0 0.12 0.04 l0.38 0 l0.06 -0.04 c0.16 0 0.2 0 0.3 0.04 c0 0.04 0.02 -0.04 0.22 -0.04 c0.16 0 0.28 0.08 0.48 0.08 c0.6 0 0.4 -0.1 1.1 -0.1 c0.24 0 0.38 0.1 0.86 0.1 c3.44 0 2.74 -0.24 3.26 -0.24 c0.06 0.1 0.92 0.02 0.92 0.36 s-0.18 0.48 -0.58 0.48 c-0.02 0 -0.1 -0.06 -0.28 -0.06 c-0.36 0 -0.76 0.04 -0.8 0.36 l0 -0.02 c-0.04 0 -0.22 0.72 -0.26 0.72 c0 0.9 -0.32 0.38 -0.32 1.02 c-0.1 0.54 -0.28 0.22 -0.28 0.76 c0 0.16 -0.36 0.94 -0.36 0.92 c0 0.2 0.36 0.82 0.36 1.2 c0 0.4 0.3 0.5 0.3 0.72 c0 0.42 0.36 0.6 0.36 1.06 c0 0.5 0.38 0.62 0.42 1.1 c0 0.02 0 0.22 0.48 1.22 c0 0.04 0.14 0.7 0.42 0.7 c0 -0.04 0.28 -0.04 0.3 -0.12 c0 -0.04 -0.02 -0.1 -0.04 -0.14 c0 -0.18 0.28 -0.78 0.28 -0.96 c-0.02 0 -0.02 0 -0.02 -0.02 c0 -0.1 0.26 -0.4 0.26 -0.56 c0 -0.02 -0.02 -0.02 -0.02 -0.04 l0.02 0 c0.02 0 0.44 -1.14 0.44 -1.26 c0 0 -0.02 0 -0.02 -0.02 c0 -0.06 0.34 -0.36 0.34 -0.8 c0.04 -1 0.48 -0.88 0.48 -1.5 c0 0 -0.04 0.1 -0.04 0.14 l0 0 s0.08 -0.24 0.46 -1.32 c-0.02 0 -0.02 -0.02 -0.02 -0.04 c0 -0.14 0.3 -0.64 0.3 -0.84 c0.16 -0.44 0.16 -0.44 0.24 -0.6 c0 -0.9 0.46 -0.9 0.46 -1.44 c0 -0.14 -0.14 -0.26 -0.46 -0.28 c-0.04 0.02 -0.1 0.06 -0.12 0.06 s-0.06 -0.02 -0.14 -0.06 c-0.54 0.02 -0.4 0.04 -0.58 0.04 c-0.06 0 -0.08 -0.04 -0.1 -0.08 l-0.16 0 s-0.02 0.02 0.04 0.08 l-0.24 0 c-0.22 -0.02 -0.22 -0.28 -0.22 -0.28 l0 0 c0 -0.3 0.34 -0.46 1.24 -0.46 c0.14 0 0.48 0.1 0.56 0.1 c0.02 0 0.06 -0.02 0.2 -0.02 l0.74 -0.04 l1.56 0 c0 0.02 0.48 0.06 0.48 0.38 c0 0.4 -0.42 0.44 -0.5 0.44 c-0.2 0 -0.48 -0.16 -0.92 -0.16 c-0.16 0.02 -0.2 0.04 -0.32 0.04 c0.02 0 -0.3 0.08 -0.3 0.42 c0 0.02 0.02 0.04 0.02 0.06 c0 0.18 -0.34 0.54 -0.34 0.9 c-0.06 0.8 -0.38 0.48 -0.38 1.04 c-0.14 0.72 -0.48 1.12 -0.48 1.42 c-0.3 1.5 -0.66 1.2 -0.66 2.02 c0 0.06 -0.28 0.38 -0.28 0.8 c0 0 0.02 0 0.02 0.02 c0 0.06 -0.42 0.56 -0.42 0.98 c0 0.08 0.02 0.1 0.02 0.12 c0 0.06 -0.3 0.38 -0.3 0.78 c-0.16 0.84 -0.5 0.88 -0.5 1.4 c-0.14 0.64 -0.4 0.78 -0.4 1.26 c-0.16 0.76 -0.5 1.18 -0.5 1.28 c-0.1 0.64 -0.28 0.32 -0.28 0.9 c-0.18 1.04 -0.38 1.38 -0.9 1.38 c0 -0.06 -0.5 0.04 -0.5 -0.9 c-0.24 -0.98 -0.08 0.16 -0.76 -2 c0.02 0 0.02 -0.02 0.02 -0.04 c0 -0.1 -0.24 -0.32 -0.24 -0.54 l0 0.02 c-0.04 0 -0.1 -0.54 -0.44 -1.2 c0.02 -0.12 -0.28 -0.48 -0.3 -0.82 c0 0 0.02 -0.02 0.02 -0.04 c0 -0.12 -0.3 -0.54 -0.3 -0.78 c-0.02 0 -0.12 -0.52 -0.28 -0.6 c-0.2 0 -0.16 0.02 -0.2 0.12 c0.04 0.08 -0.28 0.36 -0.36 0.92 c0 -0.02 0 -0.02 -0.02 -0.02 s-0.02 0.42 -0.3 0.9 c0 0.08 0.02 0.12 0.02 0.14 c0 0.16 -0.18 -0.16 -0.54 1.4 c0.02 0 0.02 0.02 0.02 0.04 c0 0.28 -0.46 0.76 -0.46 1.32 c0.22 0 -0.28 -0.02 -0.28 0.54 s-0.24 0.38 -0.24 0.96 c0 -0.02 -0.02 -0.04 -0.02 -0.04 c-0.02 0 0.02 0.68 -0.56 0.68 c-0.04 0 -0.1 -0.02 -0.12 -0.06 c-0.52 -0.42 0.02 0.02 -0.62 -1.32 c0.02 0 0.04 -0.02 0.04 -0.02 c0 -0.1 -0.32 -0.38 -0.32 -0.78 c0 -0.06 -0.2 -0.26 -0.2 -0.54 c-0.06 0.16 0.04 -0.16 -0.24 -0.52 z M19.698999999999998 20.26 c-0.04 0 -0.04 0.02 -0.06 0.04 c-0.02 -0.02 0.02 0.04 0.06 -0.04 z M25.219 20.3 c0 -0.02 -0.02 -0.02 -0.04 -0.02 s-0.04 0 -0.04 0.02 s0.02 0.04 0.04 0.04 s0.04 -0.02 0.04 -0.04 z M25.259 20.14 c0 0.1 0 0.06 0.04 0.1 l0.08 -0.04 c-0.06 -0.02 -0.1 -0.02 -0.12 -0.08 l0 0.02 z M19.739 20.04 c-0.02 0 -0.04 0.02 -0.04 0.06 c0 0.02 0.02 0.04 0.04 0.04 c0 0 0.02 -0.02 0.02 -0.04 c0 -0.04 -0.02 -0.06 -0.02 -0.06 z M25.439 19.96 l0 0.18 l0.16 -0.16 z M25.539 19.56 l0 0.04 c0.02 0 0.04 -0.02 0.06 -0.04 l-0.06 0 z M25.799 19.24 l0 0.06 l0.02 -0.06 l-0.02 0 z M18.319 17.759999999999998 c-0.02 0 -0.04 0.02 -0.04 0.04 s0.02 0.04 0.04 0.04 s0.02 -0.02 0.02 -0.04 s0 -0.04 -0.02 -0.04 z M18.239 17.56 l0 0.04 c0.02 0 0.02 0 0.02 -0.02 c0 0 0 -0.02 -0.02 -0.02 z M18.319 17.3 c-0.1 0.04 -0.08 0.1 -0.08 0.22 c0.06 -0.08 0.08 -0.12 0.08 -0.22 z M18.239 17.02 l0 0.04 c0.04 0 0.06 0.02 0.08 -0.04 l-0.08 0 z M17.779 16.240000000000002 l0 0.22 l0.02 -0.06 c0 -0.16 0 -0.12 -0.02 -0.16 z M26.819 16.18 l0.04 0.04 l0 -0.04 l-0.04 0 z M16.939 5.960000000000001 c0 0.14 -0.02 0.12 -0.02 0.16 c0 0.1 0.22 0.38 0.22 0.56 c-0.02 0 -0.02 0 -0.02 0.02 c0 0.1 0.34 0.62 0.34 0.98 c0 0 -0.02 0.02 -0.02 0.04 c0 0.12 0.34 0.56 0.34 0.8 c0.02 0.16 0.04 0.32 0.46 1.24 c0 0.16 0.24 0.34 0.24 0.52 c0.06 0.98 0.52 1.22 0.52 1.52 c-0.02 0 -0.02 0.02 -0.02 0.04 c0 0.12 0.34 0.46 0.34 0.78 c0.08 0.06 -0.08 0.22 0.3 0.78 c-0.04 0.02 -0.04 0.04 -0.04 0.06 c0 0.14 0.32 0.34 0.32 0.66 c0 0.44 0.32 0.46 0.32 0.86 c0 0.14 0 0.36 0.3 0.74 c0.02 0 0.12 -0.04 0.16 -0.04 c0.28 -1.42 0.64 -1.22 0.64 -1.8 l-0.04 0.08 c0 -0.04 0.1 -0.32 0.58 -1.62 c0 -0.52 -0.18 -0.68 -0.26 -0.96 l0.02 0.02 c0.1 0.04 -0.44 -0.64 -0.44 -1.02 c0 -0.32 -0.28 -0.58 -0.28 -0.82 c0 -0.74 -0.52 -0.8 -0.52 -1.4 c0.02 -0.04 0.02 -0.08 0.02 -0.1 c0 -0.36 -0.7 -0.72 -0.7 -1.74 c0 -0.6 -0.54 -0.64 -1.14 -0.64 c-0.04 0 -0.28 0.04 -0.32 0.04 c-0.36 0 -0.96 -0.12 -0.98 -0.12 c-0.34 0.14 -0.32 0.24 -0.32 0.36 z M17.159 14.66 c0 0 -0.02 0.02 -0.02 0.04 s0.02 0.04 0.02 0.04 s0.02 -0.02 0.02 -0.04 s-0.02 -0.04 -0.02 -0.04 z M17.099 14.440000000000001 c-0.02 0 -0.04 0.02 -0.04 0.04 c0 0 0.02 0.02 0.04 0.02 s0.02 -0.02 0.02 -0.02 c0 -0.02 0 -0.04 -0.02 -0.04 z M17.059 14.379999999999999 c-0.02 0 -0.04 0.02 -0.04 0.04 c0 0 0.02 0.02 0.04 0.02 s0.02 -0.02 0.02 -0.02 c0 -0.02 0 -0.04 -0.02 -0.04 z M16.419 12.8 c0 0.04 0.02 0.06 0.06 0.1 c0 0 0 -0.06 -0.06 -0.1 z M27.719 12.780000000000001 c-0.02 0 -0.02 0.02 -0.02 0.02 s0 0.02 0.02 0.02 s0.02 -0.02 0.02 -0.02 s0 -0.02 -0.02 -0.02 z M28.039 12.54 c-0.02 0.02 0.04 0.16 0.04 0.2 l0.04 -0.04 c0 -0.02 -0.02 -0.12 -0.04 -0.16 l-0.04 0 z M16.119 12.04 c0 -0.02 0 -0.02 -0.02 -0.02 l0 0.04 c0.02 0 0.02 0 0.02 -0.02 z M15.679 10.74 c-0.02 0 -0.02 0.02 -0.02 0.04 s0 0.04 0.02 0.04 s0.02 -0.02 0.02 -0.04 s0 -0.04 -0.02 -0.04 z M28.819 10.48 l0 0.02 l0.04 -0.02 l-0.04 0 z M28.779 10.04 c-0.02 0 -0.02 0.02 -0.02 0.04 c0 0 0 0.02 0.02 0.02 s0.02 -0.02 0.02 -0.02 c0 -0.02 0 -0.04 -0.02 -0.04 z M15.259 9.68 c0 0.1 0.06 0.08 0.1 0.12 c0 -0.06 -0.08 -0.12 -0.1 -0.12 l0 0 z M23.759 9.76 c0 0 -0.02 -0.02 -0.04 -0.02 l-0.02 0.02 c0 0.02 0.02 0.04 0.02 0.04 c0.02 0 0.04 -0.02 0.04 -0.04 z M29.059 9.74 c-0.02 0 -0.02 0 -0.02 0.02 l0.04 0 c0 -0.02 0 -0.02 -0.02 -0.02 z M22.739 6 c0.62 1.64 0.38 1.34 0.76 2.12 l0.24 0 c0 -0.02 0.18 -0.26 0.18 -0.44 c-0.02 -0.02 -0.02 -0.04 -0.02 -0.04 c0 -0.1 0.22 -0.14 0.22 -0.58 c0 -0.08 0.34 -0.98 0.34 -1.1 c0 -0.16 -0.12 -0.32 -1.1 -0.32 c-0.3 0 -0.62 0.06 -0.62 0.36 z M14.559 7.52 c0 0.06 0 0.3 0.02 0.32 l0.04 0 c0.02 -0.04 0.1 -0.12 0.1 -0.26 c0 -0.06 -0.1 -0.06 -0.16 -0.06 z M29.759 7.76 l-0.04 0 c0 0.02 0 0.04 0.02 0.04 c0 0 0.02 -0.02 0.02 -0.04 z M29.539 7.76 c0 -0.02 -0.02 -0.02 -0.04 -0.02 s-0.04 0 -0.04 0.02 l0.08 0 z M29.719 7.42 c-0.04 0.12 -0.14 0.18 -0.14 0.34 l0.1 0 c0.02 -0.18 0.04 -0.2 0.04 -0.34 z M29.919 7.359999999999999 c0 -0.02 -0.02 -0.02 -0.02 -0.02 c-0.02 0 -0.02 0 -0.02 0.02 s0 0.04 0.02 0.04 c0 0 0.02 -0.02 0.02 -0.04 z M24.539 7.0600000000000005 c0 -0.02 -0.02 -0.02 -0.02 -0.02 c-0.02 0 -0.02 0 -0.02 0.02 s0 0.04 0.02 0.04 c0 0 0.02 -0.02 0.02 -0.04 z M26.558999999999997 5.640000000000001 l-0.06 -0.02 z M31.619 5.619999999999999 c0.04 0.04 0.22 0.02 0.34 0.02 l0.04 -0.02 c-0.04 -0.02 -0.08 -0.02 -0.12 -0.02 c-0.12 0 -0.18 0.02 -0.26 0.02 z M32.159 5.52 c0 0 0.06 0.12 0.12 0.12 c0.1 -0.08 0.06 -0.14 0.16 -0.24 c0 -0.22 -0.18 -0.14 -0.3 -0.16 c0 0.04 0.08 0.12 0.14 0.16 c0 0.02 -0.06 0.08 -0.12 0.12 z M18.679000000000002 5.5600000000000005 c-0.02 0 -0.04 0.02 -0.04 0.04 c0 0 0.02 0.02 0.04 0.02 l0.02 -0.02 c0 -0.02 -0.02 -0.04 -0.02 -0.04 z M23.799 5.5600000000000005 c-0.02 0 -0.04 0.02 -0.04 0.04 c0 0 0.02 0.02 0.04 0.02 s0.02 -0.02 0.02 -0.02 c0 -0.02 0 -0.04 -0.02 -0.04 z M23.859 5.5600000000000005 c-0.02 0 -0.04 0.02 -0.04 0.04 c0 0 0.02 0.02 0.04 0.02 l0.02 -0.02 c0 -0.02 -0.02 -0.04 -0.02 -0.04 z M26.019 5.5600000000000005 c-0.02 0 -0.04 0.02 -0.04 0.04 c0 0 0.02 0.02 0.04 0.02 l0.02 -0.02 c0 -0.02 -0.02 -0.04 -0.02 -0.04 z M27.999 5.26 c0.06 0.1 0.1 0.22 0.16 0.26 c0.1 -0.08 0.12 0 0.12 -0.12 c-0.02 -0.08 -0.08 -0.14 -0.28 -0.14 z M14.679 5.42 c-0.02 0 -0.04 0.02 -0.04 0.02 c0 0.02 0.02 0.02 0.04 0.02 s0.02 0 0.02 -0.02 c0 0 0 -0.02 -0.02 -0.02 z M31.819 5.4 l0 0.06 l0.02 0 c0 -0.02 0 -0.04 -0.02 -0.06 z M12.318999999999999 5.300000000000001 l0 0.02 l0.04 0.14 z M26.659 5.32 c0 0 0 -0.02 -0.02 -0.02 l0 0.06 c0.02 0 0.02 -0.02 0.02 -0.04 z M17.259 5.26 c-0.02 0 -0.04 0.02 -0.04 0.04 c0 0 0.02 0.02 0.04 0.02 s0.02 -0.02 0.02 -0.02 c0 -0.02 0 -0.04 -0.02 -0.04 z M26.558999999999997 5.24 l0 0.02 l0.04 0 z M29.679 5.26 l-0.02 0 l0.02 0 z M31.879 5.24 l0 0.02 l0.06 0 z M32.038000000000004 20.08 c-0.22 0 -0.22 0.02 -0.36 0.02 c-0.04 0 -0.22 -0.16 -0.28 -0.22 c0 0 0.04 -0.3 0.04 -0.36 c0.72 -0.06 1.24 -0.08 1.8 -0.14 c0.06 0 0 -0.38 0.22 -0.38 l0 -0.32 c0.02 0.02 0.04 0.02 0.04 0.02 c0.12 0 0.1 -0.56 0.26 -0.6 c0 -0.04 0.08 -0.72 0.28 -0.88 l0.1 -0.38 s0.68 -2.32 0.94 -2.32 c0.02 0 0.06 0.02 0.08 0.02 c0.1 0 0.12 -0.04 0.12 -0.08 c0 -0.18 -0.16 -0.1 -0.16 -0.24 c0 -0.36 0.36 -1.04 0.4 -1.08 c0.02 -0.82 0.32 -0.62 0.32 -1.14 l0 0.02 c0.02 0 0.18 -0.5 0.26 -0.56 c0 0.04 0.02 0.04 0.02 0.04 s-0.02 0 -0.02 -0.02 c0 -0.12 0.4 -0.94 0.4 -1.16 c0.1 0 0.12 -0.02 0.12 -0.06 s-0.02 -0.08 -0.02 -0.14 c0 -0.12 0.04 -0.24 0.18 -0.4 l0 0.02 c0.04 0 0.02 -0.44 0.18 -0.44 l0.08 -0.38 l0.12 -0.1 l0 -0.32 l0.16 -0.12 l0 -0.34 s0.12 -0.04 0.12 -0.08 c-0.02 0 -0.04 -0.04 -0.04 -0.06 c0 -0.26 0.5 -1.02 0.5 -1.54 l0.1 -0.08 l0 -0.32 c0 0.02 0.02 0.02 0.02 0.02 c0.28 0 -0.1 -1.16 0.94 -1.16 c0.08 0 0.44 0.22 0.44 0.52 c0.08 0.08 -0.08 0.28 0.28 0.94 c0.02 0 0.5 1.3 0.5 1.64 c0.18 0 0.06 0.4 0.52 1.36 c0.12 0.54 0.34 0.52 0.34 0.76 l0 -0.02 s0.1 0.64 0.18 0.64 l-0.02 0 c0 0.08 0.48 0.6 0.48 1.22 c0.12 0.58 0.32 0.34 0.32 0.84 l-0.02 -0.02 c0 0.04 0.32 0.46 0.32 0.72 c-0.02 0 -0.04 0 -0.04 0.02 c0 0.08 0.22 0.36 0.22 0.46 c0 0.02 -0.02 0.02 -0.02 0.04 c0 0.04 0.2 0.2 0.2 0.56 c0.08 0.7 0.42 0.74 0.42 1.18 c-0.02 0.04 -0.04 0.06 -0.04 0.08 c0 0.1 0.32 0.1 0.32 0.56 c0 1.14 0.78 1.4 0.78 2.2 c0.08 0.64 0.46 0.86 0.52 0.9 l1.3 0 c0.08 0 0.2 0.06 0.26 0.1 l0 0.36 c-0.08 0.04 -0.14 0.12 -0.46 0.12 c-0.04 0 -1 -0.04 -1.4 -0.04 c-0.18 0 -0.34 0.04 -0.5 0.04 c-0.02 0 -0.34 -0.04 -0.38 -0.04 c-1.08 0 -1.76 0.06 -2.18 0.06 c-0.02 0 -0.02 -0.06 -0.34 -0.06 c-0.16 0 -0.2 0 -0.28 0.04 c-0.1 0 -0.18 -0.04 -0.22 -0.1 c-0.04 0 -0.12 0.02 -0.12 0.02 l0.04 0.04 l-0.04 0.04 c-0.66 0 -0.72 0 -0.86 -0.12 l0.04 -0.34 c0 -0.04 0.14 -0.12 0.22 -0.12 l1.5 0 c0.02 0.02 0.16 -0.1 0.16 -0.2 c0 -0.04 -0.32 -0.46 -0.32 -0.7 c0.04 -0.02 0.04 -0.02 0.04 -0.06 c0 -0.1 -0.34 -0.36 -0.34 -0.88 c0.02 0 0.02 0 0.02 -0.02 c0 -0.04 -0.22 -0.2 -0.22 -0.36 c0 -0.72 -0.32 -0.72 -0.32 -1.26 l0 0.02 c-0.04 0 -0.22 -0.5 -0.4 -0.5 c-1.34 0 -2.76 0.04 -4.38 0.04 c0 0.08 -0.16 0.12 -0.16 0.34 c-0.3 0.66 -0.34 0.56 -0.34 0.88 c-0.24 0.16 0.02 0.28 -0.26 0.62 c-0.16 1.1 -0.38 0.48 -0.38 1.22 l0 -0.02 c-0.04 0 -0.22 0.52 -0.24 0.52 c0 0.32 0.08 0.32 0.2 0.4 l1.6 0 c0.1 0 0.3 0.02 0.3 0.26 s-0.06 0.36 -0.42 0.36 c-0.06 0 -0.14 -0.04 -0.24 -0.04 c-0.22 0 -0.3 0.04 -0.4 0.04 c-0.04 0 -0.14 -0.04 -0.16 -0.04 l-1.42 0 c-0.04 0.04 -0.08 0.04 -0.12 0.04 c-0.06 0 -0.16 -0.02 -0.24 -0.08 c0 0 0.04 -0.04 0.04 -0.08 l-0.06 0 c-0.04 0 -0.06 0 -0.06 0.04 l0.02 0.04 c-0.02 0.08 -0.04 0.08 -0.16 0.08 c0 -0.26 0 -0.2 0.06 -0.28 c-0.02 -0.08 0.02 -0.18 -0.04 -0.22 c0 0.14 -0.06 0.24 -0.18 0.32 c0 0.04 0.06 0.08 0.1 0.1 c-0.08 0 -0.3 0.1 -0.34 0.16 c-0.36 0 -0.32 -0.08 -0.54 -0.08 z M31.878 19.92 l0 0.04 l0.1 0 c-0.06 -0.04 -0.08 -0.04 -0.1 -0.04 z M32.218 19.96 c0 -0.02 -0.02 -0.02 -0.04 -0.02 s-0.04 0 -0.04 0.02 s0.02 0.04 0.04 0.04 s0.04 -0.02 0.04 -0.04 z M32.338 19.92 c-0.02 0 -0.04 0.02 -0.04 0.04 s0.02 0.04 0.04 0.04 s0.02 -0.02 0.02 -0.04 s0 -0.04 -0.02 -0.04 z M32.778 19.88 c-0.12 0 -0.28 0.04 -0.32 0.08 c0.34 0 0.24 -0.02 0.32 -0.08 z M33.438 19.9 c0 0.02 0.16 0.04 0.18 0.06 l0.04 -0.04 c-0.1 -0.02 -0.2 -0.02 -0.22 -0.02 z M34.918 19.92 c0.26 0 0.66 0.04 0.76 0.04 c-0.22 0 -0.22 -0.22 -0.24 -0.32 c0.02 0 -0.16 0.04 -0.16 0.16 c-0.04 0 -0.02 -0.12 -0.18 -0.12 c0 0.14 -0.08 0.18 -0.18 0.24 z M35.838 19.92 l0.04 0.04 c0.02 0 0.14 -0.04 0.18 -0.04 l-0.22 0 z M33.078 19.9 c-0.02 0 -0.04 0.02 -0.04 0.04 c0 0 0.02 0.02 0.04 0.02 s0.02 -0.02 0.02 -0.02 c0 -0.02 0 -0.04 -0.02 -0.04 z M34.658 19.92 c0 0 -0.04 -0.02 -0.06 -0.02 c-0.04 0 -0.04 0.02 -0.04 0.02 c0 0.02 0 0.04 0.04 0.04 c0.02 0 0.06 -0.02 0.06 -0.04 z M39.578 19.88 c0.02 0.02 0.08 0.04 0.1 0.04 s0.12 -0.02 0.16 -0.04 l0 -0.24 s-0.04 -0.02 -0.06 -0.02 c-0.18 0 -0.2 0.04 -0.2 0.12 l0 0.14 z M44.998000000000005 19.9 c0.06 0 0.08 0.02 0.18 0.02 c0.02 0 0.12 -0.02 0.18 -0.02 l-0.36 0 z M45.958 19.9 l0 0.02 l0.02 -0.02 l-0.02 0 z M40.138000000000005 19.88 l-0.04 0.02 l0.06 0.02 z M41.638000000000005 19.88 c-0.02 0 -0.04 0.02 -0.04 0.02 s0.02 0.02 0.04 0.02 s0.02 -0.02 0.02 -0.02 s0 -0.02 -0.02 -0.02 z M44.378 19.88 c0.02 0.02 0.04 0.02 0.1 0.02 l0.38 0 c-0.02 -0.02 -0.06 -0.04 -0.1 -0.06 c-0.04 0.04 -0.1 0.04 -0.12 0.04 c-0.18 0 -0.14 -0.14 -0.18 -0.14 z M31.558000000000003 19.74 c0 0.12 0 0.1 0.04 0.14 l0.26 0 l0 -0.34 c-0.28 0.14 -0.3 0.08 -0.3 0.2 z M35.778000000000006 19.78 l0 0.1 c0.04 0 0.06 -0.04 0.06 -0.04 c-0.02 -0.12 -0.08 -0.12 -0.08 -0.22 c-0.08 0 -0.12 0.04 -0.12 0.06 c0.02 0.04 0.04 0.1 0.14 0.1 z M45.558 19.84 c-0.02 0 -0.02 0.02 -0.02 0.04 s0 0.02 0.02 0.02 s0.02 0 0.02 -0.02 s0 -0.04 -0.02 -0.04 z M32.098 19.62 c0 0.16 -0.02 0.2 -0.06 0.22 c0.12 0 0.22 0 0.22 -0.12 s-0.02 -0.1 -0.16 -0.1 z M34.218 19.8 l0 0.04 l0.04 0 z M34.578 19.72 l0.04 0.02 l0 -0.06 z M35.878 19.58 c0 0.02 0 0.06 0.02 0.06 c0 0 0.08 0 0.08 -0.06 c0 -0.04 -0.04 -0.04 -0.08 -0.06 c-0.02 0.02 -0.02 0.04 -0.02 0.06 z M45.018 19.62 c0 0.02 0.04 0.02 0.06 0.02 c0 -0.1 0 -0.1 -0.04 -0.12 c0 0 -0.02 0.06 -0.02 0.1 z M45.898 19.48 c-0.1 0.02 -0.08 0.06 -0.08 0.16 l0.16 -0.1 c0 -0.02 -0.06 -0.04 -0.08 -0.06 z M44.378 19.54 c-0.02 0 -0.04 0.02 -0.04 0.02 c0 0.02 0.02 0.02 0.04 0.02 s0.02 0 0.02 -0.02 c0 0 0 -0.02 -0.02 -0.02 z M33.398 19.48 l0 0.06 l0.04 -0.06 l-0.04 0 z M33.458 19.18 c0 0.02 0.02 0.3 0.2 0.3 c-0.04 -0.02 -0.1 -0.2 -0.1 -0.3 l0.04 -0.12 l-0.04 -0.04 c-0.08 0 -0.1 0.12 -0.1 0.16 z M34.198 18.24 c-0.06 0.04 -0.14 0.16 -0.14 0.32 c0.02 0.02 0.04 0.02 0.04 0.02 c0.08 0 0.1 -0.12 0.12 -0.18 c0 -0.02 -0.02 -0.18 -0.02 -0.16 z M34.098 17.72 c0 -0.02 -0.02 -0.02 -0.02 -0.02 c-0.02 0 -0.02 0 -0.02 0.02 s0 0.02 0.02 0.02 c0 0 0.02 0 0.02 -0.02 z M34.658 16.28 c-0.02 0 -0.04 0.02 -0.04 0.02 s0.02 0.02 0.04 0.02 l0.02 -0.02 z M40.338 16 c-0.02 0 -0.02 0.02 -0.02 0.04 s0 0.04 0.02 0.04 s0.02 -0.02 0.02 -0.04 s0 -0.04 -0.02 -0.04 z M34.838 15.84 c-0.02 0 -0.02 0.02 -0.02 0.04 s0 0.04 0.02 0.04 s0.02 -0.02 0.02 -0.04 s0 -0.04 -0.02 -0.04 z M34.838 15.42 c-0.02 0 -0.02 0.02 -0.02 0.02 c0 0.02 0 0.02 0.02 0.02 s0.02 0 0.02 -0.02 c0 0 0 -0.02 -0.02 -0.02 z M35.758 14.6 c0.06 0.24 0.08 0.26 0.22 0.34 c0.24 0 0.9 -0.04 2.72 -0.04 c0.16 0 0.24 0.06 0.64 0.06 c0.2 0 0.4 -0.06 0.4 -0.28 c0 -0.1 -0.26 -0.48 -0.26 -0.68 l0.02 0 c0 -0.04 -0.22 -0.22 -0.22 -0.44 c0 -0.74 -0.38 -0.66 -0.38 -1.12 c0.02 0.02 0.02 0.04 0.02 0.04 c-0.02 0 -0.38 -0.66 -0.38 -1.04 c0 -0.26 -0.36 -0.64 -0.36 -1.08 l0.02 0 c0 -0.04 -0.22 -0.24 -0.22 -0.48 c-0.18 -0.42 -0.2 -0.38 -0.36 -0.38 c-0.58 1.38 -0.54 1.4 -0.72 1.74 c0 -0.04 -0.02 0.64 -0.28 0.74 l0 -0.04 c-0.02 0 -0.22 1.14 -0.42 1.32 c0 0.26 -0.44 0.6 -0.44 1.34 z M35.358000000000004 14.04 c-0.02 0 -0.04 0.02 -0.04 0.04 s0.02 0.04 0.04 0.04 s0.02 -0.02 0.02 -0.04 s0 -0.04 -0.02 -0.04 z M35.818 12.719999999999999 c-0.02 0 -0.04 0.02 -0.04 0.04 c0 0 0.02 0.02 0.04 0.02 l0 -0.06 z M36.658 11.54 l0 0.02 l0.02 0 z M36.578 11.22 c-0.02 0 -0.04 0.02 -0.04 0.04 l0.04 0 l0.02 0 c0 -0.02 0 -0.04 -0.02 -0.04 z M36.658 10.7 c-0.02 0 -0.04 0.02 -0.04 0.02 c0 0.02 0.02 0.04 0.04 0.04 c0 0 0.02 -0.02 0.02 -0.04 z M37.198 9.34 c0 -0.02 -0.02 -0.02 -0.02 -0.02 c-0.02 0 -0.02 0 -0.02 0.02 s0 0.04 0.02 0.04 c0 0 0.02 -0.02 0.02 -0.04 z M37.258 9.28 l-0.02 0 c0 0.02 0.02 0.02 0.02 0.02 s0.02 0 0.02 -0.02 l-0.02 0 z M39.438 7.880000000000001 c-0.02 0 -0.02 0.02 -0.02 0.04 s0 0.04 0.02 0.04 s0.02 -0.02 0.02 -0.04 s0 -0.04 -0.02 -0.04 z M39.058 5.1 c0 0 -0.02 0.02 -0.02 0.04 l0.04 0 c0 -0.02 0 -0.04 -0.02 -0.04 z M38.538000000000004 5.0600000000000005 c-0.02 0 -0.02 0.02 -0.02 0.04 s0 0.04 0.02 0.04 s0.02 -0.02 0.02 -0.04 s0 -0.04 -0.02 -0.04 z M38.698 5.0600000000000005 l0.08 0.04 c0.16 0 0.1 0 0.16 -0.04 l-0.06 -0.08 c-0.08 0 -0.12 0.08 -0.18 0.08 z M53.297000000000004 20.06 l-2.06 -0.06 l-0.04 0.02 l0.08 -0.12 c-0.02 -0.02 -0.04 -0.04 -0.06 -0.04 c-0.04 0 -0.08 0.14 -0.14 0.2 l-1.18 0 c-0.08 -0.14 -0.2 -0.22 -0.2 -0.32 c0 -0.06 0.04 -0.14 0.04 -0.18 c0.08 -0.12 -0.12 -0.24 1.14 -0.24 c0.12 0 0.26 0.04 0.4 0.04 c0.2 0 0.4 -0.08 0.44 -0.42 c0 -0.68 -0.02 -1.28 -0.02 -1.98 c0 -0.36 0.02 -0.84 0.02 -1.24 c0 -0.86 0 -1.66 -0.06 -2.28 c0 -0.42 0.06 -1.48 0.06 -3.5 c0 -0.08 -0.02 -0.24 -0.02 -0.32 c0 -0.18 0.02 -0.2 0.02 -0.44 c0 -0.18 -0.04 -0.38 -0.04 -0.56 c0 -0.14 0.02 -0.24 0.04 -0.32 c0 -0.02 -0.02 -0.12 -0.02 -0.22 s0 -0.14 0.02 -0.22 l0 -2.22 l-0.12 -0.08 l-1.06 0 c-0.06 0.04 -0.18 0.04 -0.3 0.04 c-0.08 0 -0.22 0.02 -0.22 -0.02 c0 -0.02 -0.32 0.06 -0.32 -0.36 c0.12 -0.32 0.08 -0.28 0.32 -0.4 c2.46 0 2.24 0.04 2.9 0.04 c0.24 0 1.92 -0.04 2.38 -0.04 l0.12 0.04 l1.22 0 c0.18 0.06 0.18 0.18 0.24 0.32 c0 0.18 0.02 0.32 -0.24 0.38 c-0.24 0 -0.74 -0.04 -1.24 -0.04 c-0.78 0 -0.58 0.16 -0.72 0.44 l0 5.5 c0 0.06 -0.04 0.42 -0.04 0.48 c0 0.04 0.04 0.1 0.04 0.14 l0 1.16 c0 0.02 0.04 0.16 0.04 0.2 l-0.04 0.08 l0 3.38 c0 0.06 0.04 0.14 0.04 0.16 s-0.02 0.06 -0.04 0.14 l0 1.34 l-0.04 0.1 c0 0.56 0.06 0.62 0.32 0.72 c0.32 0 0.92 0.04 1.5 0.04 c0.74 0 1.44 -0.06 1.6 -0.28 c-0.04 0 0.44 -0.02 0.58 -0.22 c0.08 0.02 0.26 -0.36 0.56 -0.36 c0.52 -0.62 -0.1 0.1 0.78 -0.78 c-0.02 0 -0.04 0 -0.04 -0.02 c0 -0.06 0.42 -0.3 0.42 -0.52 c-0.04 0 0.56 -1 0.56 -1.18 c0 -0.62 0.36 -0.96 0.52 -1.04 c0.36 0.02 0.58 -0.28 0.58 0.78 c0 0.76 -0.1 1.76 -0.18 1.74 c0 0.04 0.02 0.1 0.06 0.16 c0 0.02 -0.08 0.54 -0.08 1.76 c0 0.48 -0.16 0.32 -0.3 0.62 c-1.12 0 -1.12 -0.06 -1.62 -0.06 c-0.24 0 -0.6 0.06 -0.7 0.06 l-1.34 -0.04 c-0.28 0 -0.62 -0.02 -0.78 -0.02 c0.02 0 -0.36 0.04 -0.58 0.04 c-0.1 0 -0.16 -0.02 -0.2 -0.08 c-0.02 0 -0.38 0.08 -0.42 0.1 c0 0 -0.02 -0.04 -0.2 -0.04 c-0.1 0 -0.38 0.04 -0.64 0.04 c-0.14 0 -0.16 -0.04 -0.28 -0.04 c-0.04 0 -0.78 0.08 -1.04 0.08 c-0.06 0 -0.36 -0.04 -0.42 -0.04 z M50.097 19.72 c-0.04 0 -0.04 0.24 -0.04 0.28 l0.04 0 l0 -0.28 z M50.757000000000005 19.72 c0 0.04 0.08 0.2 0.16 0.28 c0.04 -0.04 0.08 -0.22 0.1 -0.2 c0 -0.02 -0.12 -0.08 -0.22 -0.08 l-0.04 0 z M50.677 19.92 c-0.02 0 -0.02 0.02 -0.02 0.04 s0 0.04 0.02 0.04 s0.02 -0.02 0.02 -0.04 s0 -0.04 -0.02 -0.04 z M56.297000000000004 19.86 l0 0.04 l0.04 -0.04 l-0.04 0 z M56.717 19.8 c0 0.06 0.02 0.06 0.04 0.1 c0.1 0 0.08 -0.06 0.12 -0.14 c-0.06 0 -0.12 0 -0.16 0.04 z M56.957 19.8 l0 0.1 c0.08 0 0.08 -0.04 0.08 -0.1 l-0.08 0 z M57.257000000000005 19.8 l0 0.06 l0.04 0 l0 -0.06 l-0.04 0 z M55.777 19.8 l0 0.04 l0.04 0.02 z M49.897000000000006 19.72 c-0.04 0.02 -0.06 0.02 -0.06 0.02 c0 0.04 0.08 0 0.08 0.1 z M51.737 19.72 c-0.04 0.02 -0.1 0.02 -0.12 0.04 c0.08 0 0.12 -0.02 0.12 -0.04 z M58.637 19.68 c0 -0.02 0 -0.02 -0.02 -0.02 l0 0.06 c0.02 0 0.02 -0.02 0.02 -0.04 z M58.097 19.56 c-0.06 0 -0.04 0.04 -0.08 0.08 c0.08 0 0.08 -0.06 0.08 -0.08 z M58.957 19.52 c0.02 0.02 0.02 0.1 0.08 0.12 c0 -0.1 0 -0.12 -0.04 -0.16 z M49.917 19.52 l0.1 0.04 l0.04 -0.04 l-0.04 -0.04 c-0.08 0 -0.08 0 -0.1 0.04 z M61.737 17.36 c-0.02 0 -0.04 0.02 -0.04 0.02 c0 0.02 0.02 0.02 0.04 0.02 s0.02 0 0.02 -0.02 c0 0 0 -0.02 -0.02 -0.02 z M54.097 16.32 l0 0.1 l0.14 0 c0 -0.04 -0.06 -0.1 -0.1 -0.1 l-0.04 0 z M61.737 16.34 c-0.02 0 -0.04 0.02 -0.04 0.04 s0.02 0.04 0.04 0.04 s0.02 -0.02 0.02 -0.04 s0 -0.04 -0.02 -0.04 z M61.797000000000004 15.32 c0 0.1 0 0.2 0.02 0.28 l0.08 0 l0 -0.28 l-0.1 0 z M61.477000000000004 15.26 c0 0.02 0.02 0.08 0.04 0.1 c0.04 0 0.1 -0.02 0.1 -0.04 c0 -0.06 -0.02 -0.08 -0.08 -0.08 c-0.02 0 -0.04 0 -0.06 0.02 z M51.857 9.14 l0 0.04 l0.04 0 l0 -0.04 l-0.04 0 z M51.857 7.119999999999999 c0 -0.02 -0.02 -0.02 -0.02 -0.02 c-0.02 0 -0.02 0 -0.02 0.02 s0 0.02 0.02 0.02 c0 0 0.02 0 0.02 -0.02 z M50.457 5.4 l0 0.04 l0.08 0 c-0.06 -0.04 -0.08 -0.02 -0.08 -0.04 z M49.937000000000005 5.16 c-0.02 0 -0.02 0.16 -0.02 0.2 l0.02 -0.08 l0.14 0 c0 -0.08 -0.08 -0.12 -0.14 -0.12 z M50.337 5.18 c0.04 0.08 0.04 0.1 0.1 0.1 c0 -0.1 -0.06 -0.1 -0.1 -0.1 z M53.357 5.18 l0 0.04 l0.14 0 l0 -0.04 l-0.14 0 z M55.357 5.18 c0.02 0.04 0.06 0.06 0.08 0.06 s0.04 -0.02 0.06 -0.02 z M56.297000000000004 5.119999999999999 c0 0.08 0.4 0.1 0.42 0.1 c-0.06 -0.14 -0.16 -0.08 -0.26 -0.14 c-0.04 0 -0.12 0.04 -0.16 0.04 z M51.177 5.16 c0 0.04 0.02 0.02 0.12 0.02 l0 -0.06 s-0.08 0.02 -0.12 0.04 z M52.877 5.16 c-0.02 0 -0.04 0 -0.04 0.02 s0.02 0.04 0.04 0.04 s0.02 -0.02 0.02 -0.04 s0 -0.02 -0.02 -0.02 z M53.877 5.16 c0 0 -0.02 0 -0.02 0.02 s0.02 0.04 0.02 0.04 s0.02 -0.02 0.02 -0.04 s-0.02 -0.02 -0.02 -0.02 z M55.657000000000004 5.18 c0 -0.02 -0.02 -0.02 -0.04 -0.02 s-0.04 0 -0.04 0.02 s0.02 0.04 0.04 0.04 s0.04 -0.02 0.04 -0.04 z M69.116 20.06 l-2.06 -0.06 l-0.04 0.02 l0.08 -0.12 c-0.02 -0.02 -0.04 -0.04 -0.06 -0.04 c-0.04 0 -0.08 0.14 -0.14 0.2 l-1.18 0 c-0.08 -0.14 -0.2 -0.22 -0.2 -0.32 c0 -0.06 0.04 -0.14 0.04 -0.18 c0.08 -0.12 -0.12 -0.24 1.14 -0.24 c0.12 0 0.26 0.04 0.4 0.04 c0.2 0 0.4 -0.08 0.44 -0.42 c0 -0.68 -0.02 -1.28 -0.02 -1.98 c0 -0.36 0.02 -0.84 0.02 -1.24 c0 -0.86 0 -1.66 -0.06 -2.28 c0 -0.42 0.06 -1.48 0.06 -3.5 c0 -0.08 -0.02 -0.24 -0.02 -0.32 c0 -0.18 0.02 -0.2 0.02 -0.44 c0 -0.18 -0.04 -0.38 -0.04 -0.56 c0 -0.14 0.02 -0.24 0.04 -0.32 c0 -0.02 -0.02 -0.12 -0.02 -0.22 s0 -0.14 0.02 -0.22 l0 -2.22 l-0.12 -0.08 l-1.06 0 c-0.06 0.04 -0.18 0.04 -0.3 0.04 c-0.08 0 -0.22 0.02 -0.22 -0.02 c0 -0.02 -0.32 0.06 -0.32 -0.36 c0.12 -0.32 0.08 -0.28 0.32 -0.4 c2.46 0 2.24 0.04 2.9 0.04 c0.24 0 1.92 -0.04 2.38 -0.04 l0.12 0.04 l1.22 0 c0.18 0.06 0.18 0.18 0.24 0.32 c0 0.18 0.02 0.32 -0.24 0.38 c-0.24 0 -0.74 -0.04 -1.24 -0.04 c-0.78 0 -0.58 0.16 -0.72 0.44 l0 5.5 c0 0.06 -0.04 0.42 -0.04 0.48 c0 0.04 0.04 0.1 0.04 0.14 l0 1.16 c0 0.02 0.04 0.16 0.04 0.2 l-0.04 0.08 l0 3.38 c0 0.06 0.04 0.14 0.04 0.16 s-0.02 0.06 -0.04 0.14 l0 1.34 l-0.04 0.1 c0 0.56 0.06 0.62 0.32 0.72 c0.32 0 0.92 0.04 1.5 0.04 c0.74 0 1.44 -0.06 1.6 -0.28 c-0.04 0 0.44 -0.02 0.58 -0.22 c0.08 0.02 0.26 -0.36 0.56 -0.36 c0.52 -0.62 -0.1 0.1 0.78 -0.78 c-0.02 0 -0.04 0 -0.04 -0.02 c0 -0.06 0.42 -0.3 0.42 -0.52 c-0.04 0 0.56 -1 0.56 -1.18 c0 -0.62 0.36 -0.96 0.52 -1.04 c0.36 0.02 0.58 -0.28 0.58 0.78 c0 0.76 -0.1 1.76 -0.18 1.74 c0 0.04 0.02 0.1 0.06 0.16 c0 0.02 -0.08 0.54 -0.08 1.76 c0 0.48 -0.16 0.32 -0.3 0.62 c-1.12 0 -1.12 -0.06 -1.62 -0.06 c-0.24 0 -0.6 0.06 -0.7 0.06 l-1.34 -0.04 c-0.28 0 -0.62 -0.02 -0.78 -0.02 c0.02 0 -0.36 0.04 -0.58 0.04 c-0.1 0 -0.16 -0.02 -0.2 -0.08 c-0.02 0 -0.38 0.08 -0.42 0.1 c0 0 -0.02 -0.04 -0.2 -0.04 c-0.1 0 -0.38 0.04 -0.64 0.04 c-0.14 0 -0.16 -0.04 -0.28 -0.04 c-0.04 0 -0.78 0.08 -1.04 0.08 c-0.06 0 -0.36 -0.04 -0.42 -0.04 z M65.916 19.72 c-0.04 0 -0.04 0.24 -0.04 0.28 l0.04 0 l0 -0.28 z M66.576 19.72 c0 0.04 0.08 0.2 0.16 0.28 c0.04 -0.04 0.08 -0.22 0.1 -0.2 c0 -0.02 -0.12 -0.08 -0.22 -0.08 l-0.04 0 z M66.496 19.92 c-0.02 0 -0.02 0.02 -0.02 0.04 s0 0.04 0.02 0.04 s0.02 -0.02 0.02 -0.04 s0 -0.04 -0.02 -0.04 z M72.116 19.86 l0 0.04 l0.04 -0.04 l-0.04 0 z M72.536 19.8 c0 0.06 0.02 0.06 0.04 0.1 c0.1 0 0.08 -0.06 0.12 -0.14 c-0.06 0 -0.12 0 -0.16 0.04 z M72.776 19.8 l0 0.1 c0.08 0 0.08 -0.04 0.08 -0.1 l-0.08 0 z M73.076 19.8 l0 0.06 l0.04 0 l0 -0.06 l-0.04 0 z M71.596 19.8 l0 0.04 l0.04 0.02 z M65.716 19.72 c-0.04 0.02 -0.06 0.02 -0.06 0.02 c0 0.04 0.08 0 0.08 0.1 z M67.556 19.72 c-0.04 0.02 -0.1 0.02 -0.12 0.04 c0.08 0 0.12 -0.02 0.12 -0.04 z M74.456 19.68 c0 -0.02 0 -0.02 -0.02 -0.02 l0 0.06 c0.02 0 0.02 -0.02 0.02 -0.04 z M73.916 19.56 c-0.06 0 -0.04 0.04 -0.08 0.08 c0.08 0 0.08 -0.06 0.08 -0.08 z M74.776 19.52 c0.02 0.02 0.02 0.1 0.08 0.12 c0 -0.1 0 -0.12 -0.04 -0.16 z M65.736 19.52 l0.1 0.04 l0.04 -0.04 l-0.04 -0.04 c-0.08 0 -0.08 0 -0.1 0.04 z M77.556 17.36 c-0.02 0 -0.04 0.02 -0.04 0.02 c0 0.02 0.02 0.02 0.04 0.02 s0.02 0 0.02 -0.02 c0 0 0 -0.02 -0.02 -0.02 z M69.916 16.32 l0 0.1 l0.14 0 c0 -0.04 -0.06 -0.1 -0.1 -0.1 l-0.04 0 z M77.556 16.34 c-0.02 0 -0.04 0.02 -0.04 0.04 s0.02 0.04 0.04 0.04 s0.02 -0.02 0.02 -0.04 s0 -0.04 -0.02 -0.04 z M77.616 15.32 c0 0.1 0 0.2 0.02 0.28 l0.08 0 l0 -0.28 l-0.1 0 z M77.29599999999999 15.26 c0 0.02 0.02 0.08 0.04 0.1 c0.04 0 0.1 -0.02 0.1 -0.04 c0 -0.06 -0.02 -0.08 -0.08 -0.08 c-0.02 0 -0.04 0 -0.06 0.02 z M67.676 9.14 l0 0.04 l0.04 0 l0 -0.04 l-0.04 0 z M67.676 7.119999999999999 c0 -0.02 -0.02 -0.02 -0.02 -0.02 c-0.02 0 -0.02 0 -0.02 0.02 s0 0.02 0.02 0.02 c0 0 0.02 0 0.02 -0.02 z M66.276 5.4 l0 0.04 l0.08 0 c-0.06 -0.04 -0.08 -0.02 -0.08 -0.04 z M65.756 5.16 c-0.02 0 -0.02 0.16 -0.02 0.2 l0.02 -0.08 l0.14 0 c0 -0.08 -0.08 -0.12 -0.14 -0.12 z M66.15599999999999 5.18 c0.04 0.08 0.04 0.1 0.1 0.1 c0 -0.1 -0.06 -0.1 -0.1 -0.1 z M69.176 5.18 l0 0.04 l0.14 0 l0 -0.04 l-0.14 0 z M71.176 5.18 c0.02 0.04 0.06 0.06 0.08 0.06 s0.04 -0.02 0.06 -0.02 z M72.116 5.119999999999999 c0 0.08 0.4 0.1 0.42 0.1 c-0.06 -0.14 -0.16 -0.08 -0.26 -0.14 c-0.04 0 -0.12 0.04 -0.16 0.04 z M66.996 5.16 c0 0.04 0.02 0.02 0.12 0.02 l0 -0.06 s-0.08 0.02 -0.12 0.04 z M68.696 5.16 c-0.02 0 -0.04 0 -0.04 0.02 s0.02 0.04 0.04 0.04 s0.02 -0.02 0.02 -0.04 s0 -0.02 -0.02 -0.02 z M69.696 5.16 c0 0 -0.02 0 -0.02 0.02 s0.02 0.04 0.02 0.04 s0.02 -0.02 0.02 -0.04 s-0.02 -0.02 -0.02 -0.02 z M71.476 5.18 c0 -0.02 -0.02 -0.02 -0.04 -0.02 s-0.04 0 -0.04 0.02 s0.02 0.04 0.04 0.04 s0.04 -0.02 0.04 -0.04 z"></path>
  </g>
</svg>